<svg width="24" height="24" viewBox="0 0 24 24" fill="none" xmlns="http://www.w3.org/2000/svg">
<path d="M14.5339 5C14.358 5.32044 14.2001 5.65193 14.0565 5.99079C12.6924 5.78085 11.3031 5.78085 9.93547 5.99079C9.79547 5.65193 9.63392 5.32044 9.45804 5C8.1765 5.22469 6.92727 5.61879 5.74267 6.17495C3.39498 9.74402 2.7596 13.221 3.0755 16.6501C4.45036 17.6924 5.99036 18.488 7.63086 18.9963C8.0006 18.488 8.32727 17.9466 8.60727 17.3831C8.07599 17.1805 7.56265 16.9263 7.07087 16.6317C7.20009 16.5359 7.32574 16.4365 7.44778 16.3407C10.3303 17.733 13.6688 17.733 16.5549 16.3407C16.677 16.4438 16.8026 16.5433 16.9318 16.6317C16.4401 16.93 15.9267 17.1805 15.3919 17.3867C15.6719 17.9503 15.9985 18.4917 16.3683 19C18.0087 18.4917 19.5487 17.6998 20.9237 16.6575C21.2969 12.6796 20.2847 9.23204 18.2492 6.17864C17.0683 5.62247 15.819 5.22836 14.5375 5.00736L14.5339 5ZM9.00932 14.5396C8.12266 14.5396 7.38677 13.7145 7.38677 12.6943C7.38677 11.674 8.09394 10.8453 9.00573 10.8453C9.91753 10.8453 10.6426 11.6777 10.6283 12.6943C10.6139 13.7109 9.91394 14.5396 9.00932 14.5396ZM14.9898 14.5396C14.0995 14.5396 13.3708 13.7145 13.3708 12.6943C13.3708 11.674 14.078 10.8453 14.9898 10.8453C15.9016 10.8453 16.6231 11.6777 16.6088 12.6943C16.5944 13.7109 15.8944 14.5396 14.9898 14.5396Z" fill="black"/>
</svg>
