<svg width="324" height="314" viewBox="0 0 324 314" fill="none" xmlns="http://www.w3.org/2000/svg">
<path fill-rule="evenodd" clip-rule="evenodd" d="M174.657 92.3083C176.812 91.7148 178.974 91.17 181.112 90.5278C188.194 88.414 195.259 86.2595 202.34 84.1538C203.17 83.9721 204.012 83.8525 204.86 83.7961C203.73 84.3977 202.568 84.9587 201.47 85.6091C200.741 85.9852 200.083 86.486 199.527 87.0888C199.08 87.6416 198.535 88.7148 198.763 89.0969C199.245 89.8726 199.989 90.4496 200.86 90.7229C205.177 91.9587 209.063 90.6172 212.811 88.544C217.12 86.1538 220.624 82.853 223.868 79.1864C228.397 74.1295 232.868 69.0157 237.364 63.9264C237.584 63.6743 237.754 63.3816 237.949 63.1133L238.096 62.9264C239.039 62.2353 240.039 61.6012 240.917 60.8369C242.925 59.1134 244.925 57.3817 246.827 55.5443C247.882 54.4375 248.878 53.276 249.811 52.0647C250.161 51.6582 250.437 51.2516 251.088 51.7232C251.21 51.7882 251.316 51.8805 251.397 51.9931C251.478 52.1056 251.532 52.2354 251.555 52.3722C251.578 52.5091 251.569 52.6493 251.529 52.7821C251.488 52.9149 251.418 53.0366 251.323 53.1378C247.201 59.5768 243.071 66.0158 238.998 72.4791C236.258 76.845 232.34 80.1214 228.795 83.7473C228.413 84.1457 228.071 84.5603 227.706 84.9994C226.372 85.0563 226.08 86.2026 225.527 87.0563C225.273 87.3726 224.984 87.659 224.665 87.9099C222.576 88.5928 220.478 89.227 218.413 89.9505C209.47 93.0562 200.527 96.0968 191.698 99.3407C186.82 101.137 181.942 103.146 177.21 105.308C172.212 107.673 167.562 110.712 163.389 114.341C156.929 119.946 151.305 126.448 146.69 133.649C146.121 134.519 145.617 135.422 144.202 134.836L145.983 130.3C148.568 123.698 151.153 117.097 153.739 110.495C153.876 110.075 153.984 109.646 154.064 109.211C155.576 106.772 157.917 105.276 160.072 103.568C164.422 100.105 168.812 96.6985 173.194 93.2757C173.649 92.918 174.169 92.6253 174.657 92.3083ZM283.12 62.0808C271.892 69.3003 260.51 76.2759 249.201 83.4059C245.868 85.5116 242.331 87.3733 239.681 90.414C238.958 91.227 238.315 92.1294 237.64 92.9912L237.364 93.0481L237.64 93.2269C237.636 93.1484 237.636 93.0697 237.64 92.9912C239.193 92.5034 240.762 92.0481 242.299 91.5115C246.697 89.9749 251.055 88.2595 255.502 86.8855C257.811 86.3009 260.154 85.8637 262.518 85.5766C262.909 85.5612 263.301 85.5803 263.689 85.6335C262.665 87.2595 261.795 88.6823 260.827 90.0725C254.779 98.7879 246.592 104.869 237.088 109.333C236.981 109.361 236.872 109.378 236.762 109.381L233.323 113.446C234.323 113.17 235.332 112.95 236.307 112.633C240.445 111.243 244.567 109.82 248.697 108.414C248.882 108.371 249.069 108.344 249.258 108.333C244.649 120.528 228.933 128.357 215.519 125.235L202.787 126.471L216.608 110.755L215.421 109.65C211.063 112.454 206.811 115.219 202.535 117.934C200.34 119.332 198.096 120.666 195.877 121.999C195.777 122.229 195.64 122.441 195.47 122.625C194.251 123.617 193.031 124.576 191.787 125.552C189.21 127.584 186.527 129.495 184.088 131.682C179.787 135.519 178.096 140.56 177.925 146.194L185.999 141.47C186.682 141.023 187.34 140.536 188.055 140.137C189.113 139.441 190.242 138.858 191.421 138.397C195.95 137.023 200.511 135.739 205.072 134.487C212.389 132.462 219.746 130.422 227.096 128.503C232.145 127.17 237.226 125.967 242.283 124.69C246.77 123.552 251.25 122.406 255.722 121.251L265.892 118.674C262.852 117.674 260.12 116.788 257.405 115.885C254.966 115.072 254.909 114.82 256.526 112.812C258.437 110.43 260.364 108.048 262.331 105.707C267.615 99.6616 272.578 93.3441 277.201 86.7798C279.12 83.9425 280.925 81.0075 282.616 78.0238C286.843 70.5442 290.982 63.0158 295.128 55.4955C295.794 54.2841 296.323 52.9833 296.908 51.7313C296.095 52.3899 295.282 53.0565 294.396 53.6988C290.648 56.4874 287.055 59.5443 283.12 62.0808Z" fill="#F9E39A"/>
<path fill-rule="evenodd" clip-rule="evenodd" d="M245.12 148.064C248.283 147.909 251.462 147.885 254.616 147.568C261.512 146.77 268.212 144.755 274.404 141.617C281.209 138.316 287.185 133.796 293.022 129.08C293.339 128.82 293.697 128.609 294.03 128.373C290.34 134.182 285.488 139.165 279.778 143.007C272.004 147.945 263.341 151.317 254.275 152.934C251.348 153.495 248.397 154.007 245.429 154.283C243.905 154.299 242.385 154.113 240.909 153.731C240.234 153.609 240.161 152.47 240.771 151.918C242.21 150.641 243.665 149.381 245.12 148.064ZM131.015 170.015C130.365 171.056 129.709 172.096 129.048 173.137C132.227 173.137 135.406 173.137 138.584 173.137C142.365 173.072 146.145 172.795 149.714 171.438C153.999 169.812 158.226 168.023 162.478 166.3C164.544 165.487 166.6 164.6 168.657 163.747C169.763 162.836 170.836 161.893 171.982 161.031C174.169 159.405 176.389 157.779 178.6 156.153C178.82 156.038 179.052 155.948 179.291 155.885L180.584 154.446C180.674 154.137 180.794 153.838 180.942 153.552C182.21 151.552 183.251 149.487 183.275 147.048C182.893 147.405 182.503 147.747 182.129 148.113C175.553 154.782 167.763 160.133 159.178 163.877C150.853 167.374 141.856 168.979 132.836 168.576C132.235 169.072 131.625 169.56 131.015 170.048V170.015Z" fill="#F7C747"/>
<path fill-rule="evenodd" clip-rule="evenodd" d="M267.722 129.349C265.86 129.991 264.006 130.65 262.128 131.259C257.25 132.885 252.372 134.698 247.242 135.324C244.201 135.682 241.136 135.837 238.088 136.137C227.06 137.021 216.122 138.797 205.381 141.446C204.793 141.699 204.245 142.036 203.755 142.446C203.465 142.504 203.179 142.583 202.901 142.682C198.681 144.576 194.446 146.438 190.251 148.373C187.56 149.641 184.73 150.69 182.503 152.796C181.877 153.381 181.226 153.926 180.584 154.487C180.674 154.178 180.794 153.878 180.942 153.592C182.21 151.592 183.251 149.527 183.275 147.088C184.177 145.243 185.072 143.397 185.974 141.544C186.657 141.097 187.316 140.609 188.031 140.21C189.089 139.514 190.217 138.931 191.397 138.471C195.925 137.097 200.486 135.812 205.047 134.56C212.364 132.536 219.722 130.495 227.071 128.576C232.12 127.243 237.201 126.04 242.258 124.763C246.746 123.625 251.226 122.479 255.697 121.324L265.868 118.747C262.827 117.747 260.096 116.861 257.38 115.959C254.941 115.146 254.884 114.894 256.502 112.885C258.413 110.503 260.339 108.121 262.307 105.78C267.601 99.7118 272.573 93.3697 277.201 86.78C279.12 83.9426 280.925 81.0076 282.616 78.0239C286.843 70.5443 290.981 63.0159 295.128 55.4956C295.591 54.5481 295.922 53.5414 296.112 52.5038L296.925 51.6908C296.112 52.3574 295.242 53.0404 294.38 53.6826C290.632 56.5119 287.063 59.5688 283.104 62.1053C271.892 69.3004 260.51 76.276 249.201 83.406C245.868 85.5117 242.331 87.3734 239.681 90.4141C238.958 91.2271 238.315 92.1295 237.632 92.9913L237.348 93.0482L237.624 93.2271C237.117 93.3891 236.62 93.5818 236.136 93.8043C232.949 95.4303 229.779 97.1457 226.608 98.8286C227.543 95.7392 228.527 92.6742 229.405 89.5685C230.096 87.1295 229.722 86.3165 227.689 84.9751C228.055 84.5605 228.397 84.1214 228.779 83.7231C232.323 80.0971 236.242 76.8207 238.982 72.4549C243.047 65.9915 247.185 59.5525 251.307 53.1135C251.402 53.0123 251.472 52.8906 251.512 52.7578C251.553 52.625 251.562 52.4848 251.539 52.3479C251.516 52.2111 251.462 52.0814 251.381 51.9688C251.3 51.8562 251.194 51.7639 251.071 51.6989C250.421 51.2111 250.144 51.6339 249.795 52.0404C248.862 53.2517 247.866 54.4132 246.811 55.52C244.909 57.3574 242.909 59.0891 240.901 60.8127C240.023 61.5769 239.023 62.211 238.079 62.9021C238.129 62.6899 238.192 62.4809 238.266 62.2761C240.234 58.146 242.207 54.0133 244.185 49.8778C245.722 46.6258 247.266 43.4632 248.844 40.1787L247.73 39.9266C249.226 36.512 250.681 33.0812 252.299 29.7235C252.494 29.3332 253.6 29.382 254.405 29.195C254.762 34.2438 255.104 38.951 255.445 43.7071C255.957 50.829 254.071 57.5281 251.925 64.2191C251.364 65.959 250.827 67.7069 250.299 69.4549C249.892 70.7801 249.901 70.7801 251.055 71.8939L252.632 70.9671L275.323 57.146C275.681 56.8968 276.023 56.6252 276.347 56.333C277.022 56.1497 277.685 55.9243 278.331 55.6582C281.583 54.0322 285.152 52.8371 288.087 50.7802C294.063 46.6014 299.713 41.9754 305.485 37.5283C307.355 36.0893 309.209 34.6177 311.217 33.0487C310.989 34.1706 310.827 35.0405 310.64 35.9023C310.046 38.5933 309.721 41.3819 308.794 43.951C305.323 53.5526 300.307 62.398 294.754 70.9183C289.347 79.219 282.738 86.5523 275.738 93.5441C274.999 94.4042 274.327 95.3202 273.73 96.2839C274.224 96.3561 274.728 96.3229 275.209 96.1864L281.64 94.7636C281.404 95.9018 281.16 97.04 280.827 98.5604C282.097 98.1643 283.343 97.6946 284.559 97.1539C289.916 94.3571 295.234 91.4629 300.567 88.6661C300.997 88.472 301.44 88.3064 301.892 88.1702C300.656 90.4141 299.453 92.6661 298.185 94.9181C291.095 107.926 281.583 118.698 269.161 126.82C268.226 127.495 267.502 128.089 267.722 129.349ZM224.088 88.6986C224.291 88.4385 224.47 88.1621 224.665 87.8856C222.576 88.5686 220.478 89.2027 218.413 89.9263C209.47 93.0319 200.527 96.0726 191.698 99.3164C186.82 101.113 181.942 103.121 177.21 105.284C172.212 107.649 167.562 110.688 163.389 114.316C156.927 119.929 151.303 126.44 146.69 133.65C146.121 134.519 145.617 135.422 144.202 134.837L145.983 130.3C148.568 123.698 151.153 117.097 153.739 110.495C153.876 110.075 153.984 109.646 154.064 109.211C152.08 111.268 150.048 113.276 148.113 115.398C146.411 117.172 144.421 118.646 142.227 119.755C142.056 120.121 141.853 120.471 141.714 120.853C140.24 124.804 138.771 128.758 137.308 132.715C135.836 136.666 134.357 140.617 132.91 144.584C132.847 144.76 132.825 144.948 132.845 145.134C132.865 145.32 132.926 145.498 133.023 145.658C133.165 145.807 133.339 145.921 133.533 145.991C133.726 146.062 133.933 146.087 134.137 146.064C138.568 144.495 143.08 143.04 147.373 141.186C152.657 138.926 156.446 135.097 158.169 129.446C158.507 128.454 158.943 127.498 159.47 126.593C162.478 121.121 167.153 117.487 172.73 114.983C186.822 108.642 200.95 102.357 215.112 96.1295C216.25 95.6254 217.657 95.7392 218.933 95.5685C220.12 92.8856 222.356 90.975 224.088 88.6905V88.6986ZM188.966 186.779C196.305 183.161 203.051 178.449 208.974 172.804C210.324 171.511 211.616 170.17 212.941 168.853C212.15 168.818 211.357 168.837 210.567 168.909C206.172 169.609 201.782 170.335 197.397 171.088C192.128 172.011 186.706 170.866 182.259 167.893C182.119 167.773 182.001 167.63 181.909 167.47L178.885 171.999L181.023 172.812C180.567 173.241 180.084 173.64 179.576 174.007C178.275 174.82 176.942 175.552 175.633 176.34C172.446 178.267 170.633 181.308 169.218 184.584C168.405 186.478 169.007 187.942 170.917 188.82C172.229 189.334 173.573 189.76 174.942 190.096C179.811 190.098 184.614 188.962 188.966 186.779ZM215.031 98.8449C209.917 101.796 204.779 104.707 199.706 107.731C186.584 115.536 176.129 125.95 169.178 139.649C166.999 143.934 165.495 148.389 165.836 153.3C169.495 151.438 173.153 149.601 176.804 147.674C177.291 147.414 177.543 146.698 177.901 146.194C178.072 140.56 179.763 135.519 184.064 131.682C186.503 129.495 189.186 127.617 191.763 125.552C192.99 124.576 194.202 123.617 195.446 122.625C195.615 122.441 195.753 122.229 195.852 121.999L189.226 123.3C189.686 122.71 190.235 122.194 190.852 121.772C193.86 119.625 197.137 117.772 199.795 115.268C204.332 111.17 208.478 106.609 212.706 102.227C213.811 101.081 214.811 99.8368 215.86 98.6335C215.577 98.6893 215.299 98.771 215.031 98.8774V98.8449ZM213.112 77.4873C214.511 75.2922 216.015 73.1703 217.462 70.9833C218.275 69.7232 219.088 68.4386 219.901 67.1622C216.779 68.5687 213.649 69.9671 210.535 71.3898C201.876 75.341 193.194 79.2272 185.332 84.7068C181.755 87.2108 178.202 89.7311 174.633 92.2514C176.787 91.658 178.95 91.1132 181.088 90.471C188.169 88.3572 195.234 86.2027 202.316 84.097C203.146 83.9153 203.988 83.7957 204.836 83.7393L205.315 83.6418C206.535 83.0239 207.754 82.4385 208.982 81.7881C209.982 81.2515 210.95 80.6499 211.933 80.0727C212.263 79.1937 212.657 78.3404 213.112 77.5199V77.4873ZM272.282 47.577C276.48 45.2132 279.903 41.6833 282.136 37.4145C285.112 31.8535 288.12 26.3007 291.079 20.7317C291.391 20.0951 291.625 19.4237 291.778 18.7317C292.591 15.6341 291.624 12.7724 290.608 9.88622C290.055 8.31713 289.347 7.23583 287.469 7.52851C287.059 7.54076 286.649 7.497 286.25 7.39844C286.9 9.49598 287.551 11.5854 288.209 13.6829C288.76 15.2725 288.705 17.0095 288.055 18.561C286.713 21.7398 285.559 24.9918 284.087 28.0893C281.299 33.8779 278.201 39.4714 273.697 44.1949C271.835 46.1299 270.03 48.1217 268.201 50.0892C269.559 49.2599 270.892 48.3981 272.282 47.6095V47.577ZM178.6 156.186C176.389 157.812 174.169 159.389 171.982 161.064C170.836 161.926 169.763 162.869 168.657 163.779C169.08 164.145 169.47 164.519 169.926 164.877L177.625 171.178C177.625 169.804 177.625 168.43 177.527 167.064C177.291 163.227 177.056 159.389 179.291 155.95C179.053 156.003 178.821 156.082 178.6 156.186ZM218.6 116.861L218.779 117.007L224.421 113.69C224.465 113.408 224.55 113.135 224.673 112.877C225.405 111.853 226.218 110.877 226.917 109.837C227.332 109.219 228.023 108.617 227.502 107.593C225.941 108.349 224.454 109.081 222.949 109.78C222.787 109.861 222.543 109.78 222.332 109.78L218.6 116.861Z" fill="#EB9A44"/>
<path fill-rule="evenodd" clip-rule="evenodd" d="M234.738 148.251C233.722 148.779 232.453 149.064 231.714 149.877C228.109 153.752 224.586 157.709 221.145 161.747C218.829 164.571 216.056 166.987 212.941 168.893C212.15 168.859 211.357 168.878 210.567 168.95C206.172 169.649 201.782 170.375 197.397 171.129C192.128 172.051 186.706 170.907 182.259 167.934C182.119 167.814 182.001 167.671 181.909 167.511L182.836 165.722C190.779 167.283 197.917 164.706 204.787 161.283C214.275 156.568 223.657 151.649 233.088 146.82C233.592 146.568 234.104 146.349 234.608 146.105C234.706 146.755 234.811 147.397 234.917 148.04L234.681 148.283L234.738 148.251ZM237.649 92.9668C237.644 93.0453 237.644 93.124 237.649 93.2026C237.141 93.3646 236.645 93.5573 236.161 93.7798C232.974 95.4058 229.803 97.1212 226.632 98.8041C226.153 99.9586 225.665 101.113 225.21 102.284C224.242 104.772 223.299 107.259 222.34 109.739C222.551 109.739 222.795 109.853 222.958 109.739C224.462 109.04 225.949 108.308 227.51 107.552C228.031 108.576 227.34 109.178 226.925 109.796C226.226 110.837 225.413 111.812 224.681 112.837C224.558 113.094 224.473 113.368 224.429 113.65L233.827 108.015C235.21 107.202 236.584 106.349 238.185 105.373C237.649 106.877 237.218 108.089 236.779 109.308C236.889 109.304 236.998 109.288 237.104 109.259C246.608 104.796 254.795 98.6903 260.844 89.9993C261.811 88.6091 262.681 87.1538 263.705 85.5603C263.317 85.5071 262.926 85.4881 262.535 85.5034C260.17 85.7905 257.827 86.2277 255.518 86.8124C251.071 88.2107 246.722 89.9018 242.315 91.4384C240.771 91.9749 239.201 92.4302 237.64 92.918L237.649 92.9668ZM233.364 113.381L233.039 113.633C232.848 113.852 232.635 114.051 232.405 114.227C229.454 116.121 226.486 117.983 223.543 119.918C220.86 121.658 218.202 123.438 215.527 125.202C228.917 128.324 244.657 120.471 249.266 108.3C249.077 108.312 248.89 108.339 248.705 108.381C244.575 109.788 240.453 111.211 236.315 112.601C235.34 112.926 234.332 113.146 233.332 113.414L233.364 113.381Z" fill="#E47A40"/>
<path fill-rule="evenodd" clip-rule="evenodd" d="M282.786 3.2522C283.941 5.73456 285.098 8.21151 286.258 10.683C286.908 12.7806 287.559 14.87 288.217 16.9675C288.768 18.5571 288.713 20.2941 288.063 21.8456C286.713 24.9919 285.559 28.2439 284.087 31.3414C281.299 37.13 278.201 42.7234 273.697 47.447C271.835 49.3819 270.03 51.3738 268.201 53.3413L265.453 55.886C265.827 53.2518 266.169 50.9592 267.518 48.8535C270.966 43.7198 273.83 38.2169 276.055 32.4471C277.77 27.7317 278.339 22.8212 278.738 17.8781C279.095 13.3009 279.38 8.7237 279.697 4.1465C279.697 3.84569 279.811 3.56114 279.86 3.26846L282.786 3.2522ZM269.006 132.365C274.33 130.385 279.316 127.593 283.786 124.089C292.461 117.341 299.526 109.073 305.908 100.227C311.9 91.9101 316.225 82.5931 321.428 73.7964C322.42 72.1216 321.851 71.1135 319.908 70.6582C316.339 69.8452 313.298 70.9346 310.518 73.0972C308.526 74.6663 306.502 76.2029 304.494 77.7638L294.144 85.8207L293.843 85.967L293.99 85.6093C294.502 84.7069 294.965 83.7719 295.534 82.9101C296.534 81.3817 297.673 79.9345 298.632 78.3817C302.014 72.8858 305.364 67.3737 308.681 61.8453C314.372 52.3657 319.575 42.7153 321.835 31.691C323.022 25.8618 324.331 20.1139 323.924 14.0489C323.802 12.3497 323.924 10.6343 323.924 8.95947C320.843 9.65865 318.55 11.244 317.323 14.1627C317.087 14.6692 316.815 15.1583 316.51 15.6261C314.282 19.4635 312.266 23.4472 309.77 27.0894C303.469 36.2601 295.38 43.7641 286.9 50.8616L276.364 59.6258C277.038 59.4424 277.701 59.2171 278.347 58.951C281.599 57.325 285.169 56.1298 288.104 54.073C294.071 49.8941 299.721 45.2681 305.494 40.821C307.364 39.382 309.217 37.9105 311.225 36.3414C310.998 37.4633 310.835 38.3332 310.648 39.195C310.055 41.8861 309.729 44.6747 308.803 47.2437C305.331 56.8453 300.315 65.6908 294.762 74.211C289.356 82.5118 282.746 89.845 275.746 96.8369C275.007 97.6969 274.335 98.6129 273.738 99.5767C274.232 99.6488 274.737 99.6156 275.217 99.4791L281.648 98.0564C289.496 93.5523 297.355 89.051 305.225 84.5524C305.29 84.5117 305.412 84.5524 305.502 84.5524V84.4061H305.632L305.502 84.5118C304.733 86.9964 303.539 89.3289 301.973 91.406C300.738 93.6499 299.534 95.9019 298.266 98.1539C291.177 111.162 281.665 121.934 269.242 130.056C268.258 130.698 267.535 131.292 267.754 132.552C268.176 132.53 268.596 132.467 269.006 132.365ZM160.064 106.821C164.413 103.357 168.804 99.9507 173.186 96.5279C173.649 96.1702 174.169 95.8775 174.657 95.5605C178.226 93.0401 181.779 90.5198 185.356 88.0158C193.21 82.5362 201.893 78.65 210.559 74.6988C213.673 73.2761 216.803 71.8777 219.925 70.4712C221.218 69.894 222.519 69.3574 223.787 68.7233C224.196 68.5612 224.526 68.2471 224.708 67.8468C224.889 67.4466 224.909 66.9914 224.763 66.5769C224.218 64.9509 223.551 63.4143 222.893 61.6989C217.95 63.8208 213.137 65.7639 208.405 67.9428C196.239 73.4251 184.6 80.008 173.633 87.6093C160.389 96.9751 150.194 108.967 142.227 122.967C144.421 121.857 146.411 120.384 148.113 118.609C150.048 116.503 152.08 114.479 154.064 112.422C155.576 110.064 157.909 108.528 160.064 106.821ZM216.161 101.625L215.828 101.869C214.779 103.073 213.779 104.308 212.673 105.463C208.421 109.877 204.299 114.406 199.811 118.585C197.12 121.072 193.844 122.926 190.868 125.089C190.251 125.511 189.702 126.027 189.242 126.617L195.868 125.316C198.088 123.95 200.332 122.617 202.527 121.251C206.803 118.536 211.055 115.772 215.413 112.967L216.6 114.073L202.787 129.723L215.502 128.446C218.177 126.682 220.836 124.902 223.519 123.162C226.462 121.259 229.429 119.398 232.38 117.471C232.611 117.295 232.824 117.096 233.014 116.877L233.34 116.625L236.779 112.56C237.218 111.341 237.649 110.121 238.185 108.625C236.559 109.601 235.21 110.438 233.827 111.268L224.429 116.902L218.787 120.219L218.608 120.072L222.34 112.942C223.299 110.463 224.242 107.975 225.21 105.487C225.665 104.316 226.153 103.162 226.632 102.008C227.567 98.9181 228.551 95.8531 229.429 92.7475C230.12 90.3085 229.746 89.4955 227.714 88.154C226.38 88.2109 226.088 89.3572 225.535 90.2109C225.281 90.5272 224.992 90.8136 224.673 91.0646C224.478 91.3328 224.299 91.6093 224.096 91.8776C222.364 94.1621 220.128 96.0726 218.933 98.7637L216.161 101.625ZM173.007 199.885C174.324 199.771 175.446 199.69 176.617 199.576C185.979 198.682 194.927 195.281 202.519 189.73C211.218 183.438 218.494 175.674 225.242 167.389C229.104 162.649 231.624 157.064 234.706 151.836C234.762 151.747 234.706 151.609 234.706 151.503C233.689 152.032 232.421 152.316 231.681 153.129C228.077 157.004 224.554 160.961 221.112 164.999C218.807 167.82 216.045 170.236 212.941 172.145C211.616 173.462 210.324 174.804 208.974 176.096C203.048 181.727 196.302 186.425 188.966 190.031C184.608 192.192 179.806 193.305 174.942 193.283C174.332 195.478 173.682 197.608 173.007 199.885ZM246.283 45.6421C243.088 49.9104 240.039 54.3006 236.73 58.4794C233.373 62.9062 229.759 67.1328 225.909 71.1379C221.535 75.5037 216.624 79.3329 211.95 83.3898C210.966 83.967 209.998 84.5687 208.998 85.1052C207.787 85.7557 206.559 86.341 205.332 86.9589L204.852 87.0564C203.722 87.6581 202.559 88.2191 201.462 88.8695C200.733 89.2456 200.075 89.7463 199.519 90.3491C199.072 90.902 198.527 91.9751 198.755 92.3572C199.237 93.1329 199.981 93.7099 200.852 93.9832C205.169 95.219 209.055 93.8775 212.803 91.8044C217.112 89.4142 220.616 86.1134 223.86 82.4467C228.389 77.3899 232.86 72.2761 237.356 67.1867C237.575 66.9346 237.746 66.642 237.941 66.3737L238.088 66.1867C238.138 65.9745 238.2 65.7655 238.275 65.5607C240.242 61.4306 242.215 57.2979 244.193 53.1624C245.73 49.9104 247.275 46.7478 248.852 43.4633L247.738 43.2113C247.705 43.7641 246.575 45.2519 246.283 45.6421ZM155.682 159.592C148.161 161.755 140.657 163.934 133.991 168.267C131.942 169.601 131.885 169.519 132.836 171.828C141.857 172.233 150.854 170.628 159.178 167.129C167.763 163.385 175.553 158.034 182.129 151.365C182.503 150.999 182.893 150.658 183.275 150.3C184.177 148.454 185.072 146.609 185.974 144.755L177.901 149.479C177.543 149.983 177.291 150.698 176.804 150.958C173.169 152.885 169.487 154.723 165.836 156.584C162.454 157.584 159.072 158.617 155.682 159.592ZM254.616 150.82C261.512 150.022 268.212 148.007 274.404 144.869C281.209 141.568 287.185 137.048 293.022 132.333C293.339 132.072 293.697 131.861 294.03 131.625L298.729 124.763L298.355 124.406L291.982 128.243C288.299 130.495 284.738 133.007 280.9 134.959C273.169 138.885 264.738 140.723 256.315 142.487C251.648 143.471 247.315 145.137 243.787 148.487C243.079 149.154 242.437 149.902 241.649 150.739L245.12 151.292C248.315 151.162 251.462 151.137 254.616 150.82ZM177.527 170.283C177.608 171.649 177.592 173.023 177.625 174.397L178.885 175.283L181.909 170.755L182.836 168.966C182.9 168.797 182.979 168.634 183.072 168.479C185.039 165.893 186.99 163.292 189.007 160.739C191.982 156.958 194.82 153.04 198.584 149.942L203.755 145.658C203.465 145.715 203.179 145.794 202.901 145.893C198.681 147.788 194.446 149.649 190.251 151.584C187.56 152.853 184.73 153.901 182.503 156.007C181.877 156.592 181.226 157.137 180.584 157.698L179.291 159.137C177.056 162.609 177.291 166.454 177.527 170.283ZM237.47 146.877L236.949 146.397L234.632 149.381C234.73 150.032 234.836 150.674 234.941 151.316C235.909 149.885 237.096 148.568 237.47 146.877ZM0 310.291C0.674792 307.526 1.51218 304.778 1.98372 301.974C2.45526 299.169 2.50405 296.331 2.79673 293.518C3.28453 288.957 4.77232 284.657 6.31703 280.38C7.94303 275.86 9.56903 271.34 11.0731 266.779C12.5745 262.449 15.3558 258.679 19.0486 255.966C22.1137 253.576 25.3088 251.34 28.3169 248.893C37.1623 241.698 45.9427 234.429 54.7394 227.177C58.0398 224.571 60.6408 221.185 62.3085 217.324C63.7963 213.763 63.2922 211.169 60.4792 208.495C57.902 206.056 55.1459 203.787 52.6419 201.283C51.4978 200.164 50.6054 198.815 50.024 197.324C46.9996 188.991 44.1297 180.609 41.2111 172.243C38.9347 165.739 38.9103 159.056 39.8534 152.324C40.0485 150.918 40.0729 149.487 40.2517 148.08C40.2708 147.502 40.448 146.939 40.7639 146.454C42.8777 144.015 44.9509 141.576 47.2679 139.357C52.0728 134.755 57.902 131.69 63.8369 128.845C66.4223 127.601 69.0889 126.52 71.6336 125.194C76.658 122.593 81.9181 122.357 87.3408 123.324C90.6416 123.91 93.9749 124.398 97.2432 125.137C98.1808 125.464 98.9746 126.108 99.4871 126.959C101.438 129.999 103.227 133.154 105.105 136.243C106.422 138.414 107.674 140.633 109.17 142.682C110.09 144.036 111.257 145.205 112.609 146.129C115.503 147.95 118.593 149.454 121.552 151.121C123.048 151.879 124.488 152.743 125.861 153.706C128.365 155.617 128.91 158.251 127.487 161.072C126.942 162.17 126.227 163.178 125.552 164.324L130.95 173.365C130.3 174.405 129.644 175.446 128.983 176.487C128.503 177.3 128.015 178.072 127.479 178.926C128.292 179.405 129.105 179.844 129.918 180.324C133.17 182.267 134.056 184.316 133.511 188.039C133.162 189.716 132.979 191.424 132.966 193.137C133.066 195.179 133.435 197.2 134.064 199.145C135.446 203.275 134.714 206.023 131.023 208.389C129.083 209.642 127.056 210.756 124.958 211.722C116.503 215.568 111.438 222.161 109.154 231.015C108.552 233.316 108.251 235.698 107.82 238.047C107.625 239.112 108.381 239.722 109.056 240.275C110.904 241.798 112.782 243.28 114.69 244.722C121.471 249.819 128.235 254.941 135.072 259.958C140.657 264.023 144.324 269.543 146.812 275.876C150.233 284.926 153.165 294.153 155.592 303.518C156.446 306.648 157.291 309.77 158.17 313.03C157.739 313.03 157.357 313.079 157.039 313.079H39.642C27.8616 313.079 16.0649 313.038 4.28452 313.03C3.61569 313.063 2.43901 313.03 2.43901 313.03H1.2195C0.804548 312.93 0.275862 313.121 0 312.795V310.291Z" fill="white"/>
</svg>
