<svg width="180" height="90" viewBox="0 0 180 90" fill="none" xmlns="http://www.w3.org/2000/svg">
<path fill-rule="evenodd" clip-rule="evenodd" d="M50.3995 26.7771C51.0212 26.6049 51.6452 26.4469 52.2622 26.2606C54.3056 25.6474 56.3443 25.0224 58.3877 24.4116C58.6272 24.3589 58.8703 24.3242 59.1149 24.3079C58.7888 24.4824 58.4533 24.6451 58.1366 24.8338C57.9263 24.9429 57.7365 25.0881 57.5759 25.263C57.4469 25.4234 57.2897 25.7347 57.3554 25.8455C57.4945 26.0705 57.7092 26.2379 57.9607 26.3172C59.2064 26.6757 60.3278 26.2865 61.4093 25.6851C62.6527 24.9918 63.6638 24.0343 64.5999 22.9707C65.9066 21.5037 67.1969 20.0203 68.4943 18.544C68.5576 18.4709 68.6069 18.386 68.6632 18.3081L68.7054 18.2539C68.9775 18.0534 69.2661 17.8695 69.5195 17.6478C70.0989 17.1478 70.6761 16.6455 71.225 16.1125C71.5294 15.7914 71.8168 15.4545 72.086 15.1031C72.1869 14.9852 72.2666 14.8673 72.4543 15.004C72.4897 15.0229 72.5203 15.0497 72.5437 15.0823C72.5671 15.115 72.5827 15.1526 72.5893 15.1923C72.5958 15.232 72.5932 15.2727 72.5816 15.3112C72.57 15.3497 72.5497 15.385 72.5224 15.4144C71.3329 17.2822 70.1412 19.1501 68.9658 21.025C68.1752 22.2914 67.0444 23.2419 66.0216 24.2937C65.9113 24.4093 65.8128 24.5295 65.7072 24.6569C65.3225 24.6734 65.238 25.0059 65.0785 25.2536C65.0052 25.3453 64.9218 25.4284 64.8298 25.5012C64.2269 25.6993 63.6216 25.8832 63.0257 26.0931C60.4451 26.994 57.8645 27.8761 55.3167 28.8171C53.9091 29.3383 52.5015 29.9208 51.1361 30.5481C49.6939 31.2342 48.352 32.1158 47.1479 33.1683C45.2837 34.7943 43.6609 36.6805 42.3292 38.7694C42.165 39.0218 42.0195 39.2836 41.6113 39.1138L42.1251 37.7978C42.8711 35.8828 43.6172 33.9678 44.3632 32.0528C44.4027 31.9308 44.4341 31.8063 44.457 31.6801C44.8934 30.9726 45.569 30.5387 46.1907 30.0434C47.4459 29.0388 48.7127 28.0506 49.9772 27.0577C50.1086 26.954 50.2587 26.8691 50.3995 26.7771ZM81.6976 18.0086C78.4578 20.1029 75.1734 22.1264 71.9101 24.1947C70.9482 24.8055 69.9277 25.3455 69.1629 26.2276C68.9541 26.4634 68.7687 26.7252 68.574 26.9752L68.4943 26.9917L68.574 27.0436C68.5729 27.0208 68.5729 26.998 68.574 26.9752C69.0221 26.8337 69.4749 26.7016 69.9183 26.546C71.1875 26.1002 72.4449 25.6026 73.7282 25.204C74.3944 25.0344 75.0706 24.9076 75.7528 24.8243C75.8657 24.8199 75.9787 24.8254 76.0906 24.8408C75.795 25.3125 75.544 25.7252 75.2649 26.1285C73.5194 28.6567 71.157 30.4208 68.4145 31.7155C68.3839 31.7239 68.3524 31.7286 68.3207 31.7297L67.3283 32.9089C67.6169 32.8287 67.9078 32.765 68.1893 32.673C69.3834 32.2697 70.5728 31.857 71.7646 31.449C71.8178 31.4367 71.872 31.4288 71.9265 31.4254C70.5963 34.963 66.0614 37.2341 62.1905 36.3285L58.5167 36.687L62.5049 32.1282L62.1624 31.8075C60.9049 32.6211 59.678 33.423 58.444 34.2107C57.8105 34.6163 57.163 35.0031 56.5226 35.3899C56.4938 35.4566 56.4542 35.5179 56.4053 35.5715C56.0534 35.8592 55.7015 36.1375 55.3425 36.4205C54.5988 37.0101 53.8247 37.5643 53.1209 38.1987C51.8798 39.3119 51.3918 40.7741 51.3426 42.4084L53.6722 41.0382C53.8692 40.9085 54.0593 40.767 54.2657 40.6514C54.571 40.4495 54.8965 40.2804 55.237 40.1467C56.5437 39.7482 57.8598 39.3755 59.1759 39.0123C61.2873 38.4251 63.4105 37.8332 65.5312 37.2766C66.9881 36.8898 68.4544 36.5408 69.9136 36.1705C71.2086 35.8403 72.5012 35.5078 73.7915 35.1729L76.7264 34.4253C75.849 34.1352 75.0607 33.8782 74.2772 33.6164C73.5734 33.3805 73.557 33.3074 74.0238 32.7249C74.5751 32.0339 75.1311 31.3429 75.6989 30.6637C77.2235 28.9102 78.6558 27.0775 79.9897 25.1734C80.5434 24.3503 81.0642 23.4989 81.5522 22.6334C82.7721 20.4637 83.9662 18.2798 85.1627 16.0983C85.355 15.7469 85.5075 15.3696 85.6764 15.0064C85.4418 15.1974 85.2072 15.3908 84.9515 15.5771C83.87 16.3861 82.8331 17.2728 81.6976 18.0086Z" fill="#F9E39A"/>
<path fill-rule="evenodd" clip-rule="evenodd" d="M70.7323 42.9508C71.6449 42.906 72.5622 42.8989 73.4724 42.8069C75.4624 42.5755 77.3957 41.991 79.1826 41.0806C81.1462 40.1231 82.8705 38.8118 84.555 37.4439C84.6465 37.3685 84.7497 37.3072 84.8459 37.2388C83.781 38.9239 82.3808 40.3692 80.7333 41.4839C78.49 42.9162 75.9901 43.8944 73.3739 44.3634C72.5293 44.5262 71.6777 44.6747 70.8214 44.7549C70.3815 44.7595 69.9429 44.7056 69.517 44.5946C69.3223 44.5592 69.3012 44.229 69.4772 44.0686C69.8924 43.6984 70.3123 43.3328 70.7323 42.9508ZM37.806 49.3184C37.6183 49.6203 37.4291 49.9221 37.2383 50.224C38.1556 50.224 39.0729 50.224 39.9902 50.224C41.081 50.2051 42.1719 50.125 43.2018 49.7311C44.4382 49.2594 45.6581 48.7406 46.8851 48.2406C47.481 48.0048 48.0745 47.7477 48.668 47.5001C48.9871 47.2359 49.2968 46.9624 49.6276 46.7124C50.2586 46.2407 50.8991 45.769 51.5372 45.2974C51.6005 45.2639 51.6674 45.2377 51.7366 45.2195L52.1096 44.8021C52.1357 44.7125 52.1702 44.6256 52.2129 44.5427C52.5788 43.9625 52.8791 43.3635 52.8862 42.656C52.7759 42.7597 52.6633 42.8588 52.5554 42.9649C50.6579 44.8996 48.41 46.4518 45.9326 47.5378C43.5306 48.5523 40.9344 49.0179 38.3315 48.901C38.1579 49.0448 37.982 49.1863 37.806 49.3278V49.3184Z" fill="#F7C747"/>
<path fill-rule="evenodd" clip-rule="evenodd" d="M77.2542 37.5218C76.717 37.7081 76.1821 37.8992 75.6402 38.076C74.2326 38.5477 72.825 39.0736 71.3446 39.2552C70.4672 39.359 69.5828 39.4038 68.703 39.4911C65.5209 39.7475 62.3645 40.2626 59.265 41.0311C59.0955 41.1044 58.9374 41.2021 58.7958 41.3212C58.7122 41.3378 58.6298 41.3607 58.5495 41.3896C57.3319 41.9391 56.1097 42.4791 54.8991 43.0404C54.1226 43.4083 53.3062 43.7126 52.6634 44.3234C52.4827 44.4932 52.295 44.6512 52.1097 44.8139C52.1357 44.7243 52.1703 44.6374 52.2129 44.5545C52.5789 43.9743 52.8792 43.3753 52.8862 42.6678C53.1466 42.1324 53.4047 41.5971 53.6651 41.0594C53.8622 40.9297 54.0522 40.7882 54.2587 40.6726C54.564 40.4707 54.8895 40.3015 55.2299 40.1679C56.5366 39.7693 57.8527 39.3967 59.1689 39.0335C61.2803 38.4463 63.4034 37.8543 65.5242 37.2978C66.9811 36.911 68.4473 36.562 69.9065 36.1917C71.2015 35.8615 72.4942 35.529 73.7845 35.1941L76.7194 34.4465C75.8419 34.1564 75.0537 33.8993 74.2701 33.6376C73.5663 33.4017 73.5499 33.3286 74.0168 32.7461C74.5681 32.0551 75.1241 31.3641 75.6918 30.6849C77.2195 28.9246 78.6541 27.0849 79.9897 25.1733C80.5434 24.3503 81.0642 23.4989 81.5521 22.6334C82.7721 20.4637 83.9662 18.2798 85.1626 16.0983C85.2964 15.8234 85.3919 15.5314 85.4465 15.2304L85.6811 14.9946C85.4465 15.188 85.1955 15.3861 84.9468 15.5724C83.8653 16.3931 82.8354 17.2798 81.6929 18.0157C78.4578 20.1028 75.1733 22.1263 71.91 24.1946C70.9482 24.8054 69.9277 25.3455 69.1629 26.2275C68.9541 26.4634 68.7687 26.7252 68.5717 26.9751L68.4896 26.9916L68.5693 27.0435C68.423 27.0905 68.2796 27.1464 68.14 27.211C67.2204 27.6827 66.3054 28.1803 65.3905 28.6685C65.6603 27.7723 65.9441 26.8832 66.1975 25.9823C66.3969 25.2747 66.289 25.0389 65.7025 24.6498C65.8081 24.5295 65.9066 24.4021 66.0169 24.2866C67.0397 23.2348 68.1705 22.2843 68.9611 21.0179C70.1341 19.143 71.3282 17.2751 72.5177 15.4073C72.545 15.3779 72.5653 15.3426 72.5769 15.3041C72.5885 15.2656 72.5911 15.2249 72.5845 15.1852C72.578 15.1455 72.5624 15.1079 72.539 15.0752C72.5156 15.0426 72.485 15.0158 72.4496 14.9969C72.2619 14.8554 72.1822 14.9781 72.0813 15.096C71.8121 15.4474 71.5247 15.7843 71.2203 16.1054C70.6713 16.6384 70.0942 17.1407 69.5148 17.6407C69.2614 17.8624 68.9728 18.0463 68.7007 18.2468C68.7151 18.1852 68.7331 18.1246 68.7547 18.0652C69.3224 16.8671 69.8917 15.6683 70.4626 14.4687C70.9059 13.5253 71.3517 12.6079 71.8068 11.6551L71.4854 11.582C71.9171 10.5915 72.337 9.59624 72.8039 8.62223C72.8602 8.50903 73.1792 8.52318 73.4115 8.46893C73.5147 9.93349 73.6132 11.299 73.7118 12.6786C73.8596 14.7446 73.3153 16.6879 72.6959 18.6288C72.5341 19.1335 72.3792 19.6406 72.2267 20.1476C72.1094 20.532 72.1118 20.532 72.4449 20.8551L72.9001 20.5863L79.4478 16.577C79.5511 16.5047 79.6498 16.426 79.7434 16.3412C79.938 16.288 80.1292 16.2226 80.3158 16.1455C81.2542 15.6738 82.2841 15.3271 83.131 14.7304C84.8553 13.5182 86.4858 12.1763 88.1515 10.8863C88.691 10.4688 89.2259 10.042 89.8054 9.58681C89.7397 9.91226 89.6928 10.1646 89.6388 10.4146C89.4676 11.1952 89.3737 12.0041 89.1063 12.7494C88.1045 15.5346 86.6571 18.1006 85.0547 20.5721C83.4946 22.98 81.5873 25.1073 79.5674 27.1355C79.3541 27.385 79.1604 27.6507 78.9879 27.9303C79.1307 27.9512 79.2762 27.9416 79.4149 27.902L81.2706 27.4893C81.2026 27.8194 81.1322 28.1496 81.036 28.5906C81.4025 28.4757 81.7621 28.3395 82.1128 28.1826C83.6589 27.3713 85.1931 26.5318 86.7321 25.7205C86.8563 25.6642 86.9841 25.6161 87.1145 25.5766C86.7579 26.2275 86.4107 26.8808 86.0447 27.5341C83.999 31.3075 81.2542 34.4323 77.6695 36.7884C77.3997 36.9841 77.1909 37.1563 77.2542 37.5218ZM64.6632 25.7299C64.7219 25.6544 64.7735 25.5743 64.8298 25.4941C64.2269 25.6922 63.6216 25.8761 63.0257 26.086C60.4451 26.9869 57.8645 27.869 55.3167 28.81C53.9091 29.3312 52.5015 29.9137 51.1361 30.541C49.6939 31.2271 48.352 32.1087 47.1479 33.1612C45.2831 34.7893 43.6604 36.678 42.3292 38.7694C42.165 39.0217 42.0195 39.2835 41.6113 39.1137L42.1251 37.7977C42.8711 35.8827 43.6171 33.9677 44.3632 32.0527C44.4027 31.9308 44.4341 31.8063 44.457 31.6801C43.8846 32.2768 43.2981 32.8593 42.7397 33.4748C42.2487 33.9897 41.6744 34.4171 41.0412 34.7389C40.992 34.8451 40.9333 34.9465 40.8934 35.0573C40.468 36.2035 40.0442 37.3504 39.6219 38.4982C39.1973 39.6444 38.7703 40.7905 38.3527 41.9414C38.3347 41.9925 38.3284 42.0469 38.334 42.1008C38.3397 42.1547 38.3573 42.2066 38.3855 42.2527C38.4264 42.296 38.4767 42.3291 38.5325 42.3496C38.5882 42.37 38.648 42.3772 38.7069 42.3706C39.9855 41.9155 41.2876 41.4933 42.5263 40.9556C44.0512 40.3 45.1444 39.1892 45.6418 37.5501C45.7393 37.2624 45.865 36.9851 46.0171 36.7223C46.8851 35.1351 48.2341 34.0809 49.8435 33.3546C53.9099 31.515 57.9865 29.692 62.0732 27.8855C62.4017 27.7393 62.8075 27.7723 63.1758 27.7227C63.5184 26.9445 64.1635 26.3903 64.6632 25.7276V25.7299ZM54.5284 54.1814C56.6461 53.1318 58.5928 51.7648 60.302 50.1273C60.6914 49.7524 61.0644 49.3632 61.4468 48.9812C61.2184 48.9713 60.9895 48.9768 60.7618 48.9977C59.4934 49.2005 58.2265 49.4112 56.9613 49.6297C55.4408 49.8973 53.8762 49.5653 52.593 48.7029C52.5527 48.668 52.5186 48.6266 52.4921 48.5803L51.6194 49.8939L52.2364 50.1297C52.1048 50.2543 51.9653 50.3701 51.8188 50.4764C51.4434 50.7122 51.0587 50.9245 50.681 51.1532C49.7614 51.7122 49.2382 52.5942 48.83 53.5446C48.5954 54.0941 48.769 54.5187 49.3203 54.7734C49.6988 54.9225 50.0867 55.0462 50.4816 55.1436C51.8867 55.1442 53.2725 54.8147 54.5284 54.1814ZM62.0498 28.6732C60.5741 29.5293 59.0914 30.3736 57.6275 31.2509C53.8411 33.5149 50.8241 36.536 48.8183 40.5099C48.1895 41.7527 47.7555 43.0451 47.854 44.4696C48.9097 43.9295 49.9655 43.3965 51.0188 42.8376C51.1596 42.7621 51.2323 42.5546 51.3355 42.4084C51.3848 40.774 51.8728 39.3118 53.1138 38.1987C53.8176 37.5643 54.5918 37.0195 55.3355 36.4205C55.6897 36.1374 56.0393 35.8592 56.3982 35.5714C56.4471 35.5179 56.4868 35.4565 56.5155 35.3898L54.6035 35.7672C54.7363 35.596 54.8945 35.4464 55.0727 35.3238C55.9407 34.7012 56.8862 34.1635 57.6533 33.4371C58.9624 32.2485 60.1589 30.9254 61.3788 29.6543C61.6979 29.3217 61.9864 28.9609 62.289 28.6119C62.2073 28.628 62.1272 28.6517 62.0498 28.6826V28.6732ZM61.4961 22.4777C61.8996 21.8409 62.3336 21.2254 62.7512 20.591C62.9858 20.2255 63.2204 19.8528 63.455 19.4826C62.5541 19.8906 61.6509 20.2962 60.7524 20.7089C58.2539 21.8551 55.7484 22.9824 53.4798 24.5719C52.4475 25.2983 51.4223 26.0294 50.3924 26.7605C51.0141 26.5884 51.6382 26.4304 52.2552 26.244C54.2985 25.6309 56.3372 25.0059 58.3806 24.3951C58.6201 24.3423 58.8632 24.3076 59.1079 24.2913L59.2463 24.263C59.5982 24.0838 59.9501 23.914 60.3043 23.7253C60.5929 23.5696 60.8721 23.3951 61.1559 23.2277C61.2509 22.9727 61.3646 22.7252 61.4961 22.4871V22.4777ZM78.5704 13.8012C79.7817 13.1155 80.7693 12.0916 81.4137 10.8533C82.2724 9.24012 83.1404 7.62935 83.9943 6.01386C84.0842 5.82919 84.1519 5.63444 84.1961 5.4337C84.4307 4.53516 84.1515 3.70501 83.8583 2.86778C83.6987 2.41261 83.4946 2.09895 82.9527 2.18385C82.8342 2.1874 82.7159 2.17471 82.6008 2.14612C82.7885 2.75458 82.9762 3.36068 83.1662 3.96914C83.3252 4.43024 83.3093 4.93412 83.1216 5.38417C82.7345 6.3063 82.4014 7.24965 81.9768 8.14819C81.1721 9.82736 80.2783 11.4499 78.9786 12.8201C78.4413 13.3814 77.9205 13.9592 77.3927 14.53C77.7844 14.2894 78.1692 14.0394 78.5704 13.8107V13.8012ZM51.5373 45.3068C50.8992 45.7785 50.2587 46.236 49.6276 46.7219C49.2968 46.9718 48.9872 47.2454 48.6681 47.5095C48.7901 47.6157 48.9027 47.7242 49.0341 47.8279L51.2558 49.6557C51.2558 49.2571 51.2558 48.8585 51.2276 48.4623C51.1596 47.3492 51.0915 46.236 51.7367 45.2384C51.6679 45.2536 51.601 45.2766 51.5373 45.3068ZM63.0797 33.8993L63.1313 33.9418L64.7594 32.9796C64.772 32.8978 64.7965 32.8183 64.8321 32.7437C65.0433 32.4466 65.2779 32.1636 65.4796 31.8617C65.5993 31.6825 65.7987 31.5079 65.6485 31.2108C65.1981 31.4301 64.7688 31.6424 64.3348 31.8452C64.2878 31.8688 64.2175 31.8452 64.1565 31.8452L63.0797 33.8993Z" fill="#EB9A44"/>
<path fill-rule="evenodd" clip-rule="evenodd" d="M67.7366 43.0051C67.4433 43.1584 67.0773 43.2409 66.8638 43.4768C65.8238 44.6009 64.8072 45.7487 63.814 46.92C63.1459 47.7393 62.3457 48.44 61.4469 48.993C61.2185 48.9831 60.9896 48.9886 60.7619 49.0095C59.4935 49.2124 58.2266 49.423 56.9613 49.6416C55.4409 49.9091 53.8763 49.5772 52.5931 48.7147C52.5528 48.6799 52.5187 48.6384 52.4922 48.5921L52.7596 48.0733C55.0517 48.5261 57.1115 47.7785 59.0939 46.7856C61.8317 45.4177 64.5389 43.9909 67.2603 42.59C67.4058 42.5169 67.5536 42.4532 67.699 42.3825C67.7272 42.5712 67.7577 42.7575 67.7882 42.9438L67.7201 43.0145L67.7366 43.0051ZM68.5764 26.9681C68.5752 26.9909 68.5752 27.0137 68.5764 27.0365C68.4301 27.0835 68.2867 27.1394 68.1471 27.204C67.2275 27.6756 66.3125 28.1733 65.3976 28.6614C65.2592 28.9963 65.1184 29.3312 64.987 29.6708C64.7079 30.3925 64.4357 31.1142 64.1589 31.8335C64.2199 31.8335 64.2903 31.8665 64.3372 31.8335C64.7712 31.6306 65.2005 31.4184 65.651 31.1991C65.8011 31.4962 65.6017 31.6707 65.482 31.85C65.2803 32.1518 65.0457 32.4348 64.8345 32.732C64.7989 32.8066 64.7744 32.8861 64.7618 32.9678L67.4738 31.3335C67.8726 31.0976 68.2691 30.85 68.7313 30.567C68.5764 31.0033 68.4521 31.3547 68.3254 31.7085C68.3571 31.7074 68.3886 31.7026 68.4192 31.6943C71.1617 30.3996 73.5242 28.6284 75.2696 26.1073C75.5488 25.704 75.7998 25.2819 76.0954 24.8196C75.9835 24.8042 75.8704 24.7987 75.7576 24.8031C75.0754 24.8864 74.3991 25.0132 73.733 25.1828C72.4497 25.5885 71.1946 26.079 69.923 26.5247C69.4773 26.6804 69.0245 26.8125 68.5741 26.954L68.5764 26.9681ZM67.3401 32.89L67.2462 32.9631C67.1911 33.0265 67.1298 33.0842 67.0633 33.1353C66.2117 33.6848 65.3554 34.2249 64.5061 34.7861C63.7319 35.2908 62.9648 35.8073 62.1929 36.3191C66.0568 37.2247 70.5987 34.9465 71.9289 31.416C71.8744 31.4194 71.8202 31.4273 71.767 31.4396C70.5752 31.8476 69.3858 32.2603 68.1917 32.6636C67.9102 32.7579 67.6193 32.8216 67.3307 32.8994L67.3401 32.89Z" fill="#E47A40"/>
<path fill-rule="evenodd" clip-rule="evenodd" d="M81.6013 0C81.9344 0.720092 82.2683 1.43861 82.603 2.15556C82.7907 2.76402 82.9784 3.37012 83.1684 3.97859C83.3274 4.43968 83.3116 4.94356 83.1238 5.39361C82.7344 6.30631 82.4013 7.24966 81.9766 8.1482C81.172 9.82737 80.2781 11.4499 78.9784 12.8202C78.4412 13.3814 77.9204 13.9593 77.3925 14.53L76.5996 15.2682C76.7075 14.504 76.806 13.839 77.1955 13.2282C78.1904 11.739 79.0166 10.1427 79.6588 8.46894C80.1538 7.10108 80.318 5.67662 80.433 4.24273C80.5362 2.91496 80.6183 1.58719 80.7098 0.259422C80.7098 0.172162 80.7426 0.0896185 80.7567 0.00471687L81.6013 0ZM77.6248 37.4534C79.1612 36.8791 80.5999 36.0692 81.8898 35.0526C84.393 33.0951 86.4317 30.6967 88.2733 28.1308C90.0023 25.7181 91.2504 23.0154 92.7519 20.4637C93.0381 19.9778 92.8739 19.6854 92.3132 19.5533C91.2833 19.3175 90.4059 19.6335 89.6035 20.2608C89.0288 20.716 88.4446 21.1617 87.8651 21.6146L84.8787 23.9517L84.7919 23.9942L84.8341 23.8904C84.9819 23.6286 85.1156 23.3574 85.2798 23.1074C85.5684 22.664 85.8968 22.2442 86.1737 21.7938C87.1496 20.1995 88.1161 18.6005 89.0733 16.9968C90.7155 14.247 92.217 11.4476 92.8692 8.24961C93.2117 6.55865 93.5894 4.89128 93.4721 3.13193C93.4369 2.63903 93.4721 2.14141 93.4721 1.65558C92.583 1.8584 91.9214 2.31829 91.5671 3.16495C91.4991 3.31188 91.4207 3.45375 91.3325 3.58946C90.6897 4.70261 90.1079 5.85822 89.3877 6.91477C87.5695 9.57502 85.2353 11.7518 82.7884 13.8107L79.7479 16.353C79.9426 16.2998 80.1338 16.2344 80.3204 16.1573C81.2588 15.6856 82.2887 15.3389 83.1356 14.7422C84.8575 13.53 86.488 12.1881 88.1537 10.8981C88.6933 10.4806 89.2282 10.0538 89.8076 9.59861C89.7419 9.92406 89.695 10.1764 89.6411 10.4264C89.4698 11.207 89.376 12.0159 89.1085 12.7612C88.1068 15.5464 86.6593 18.1124 85.057 20.5839C83.4969 22.9918 81.5895 25.1191 79.5696 27.1473C79.3563 27.3968 79.1626 27.6625 78.9902 27.9421C79.1329 27.963 79.2784 27.9534 79.4171 27.9138L81.2728 27.5011C83.5375 26.1945 85.8053 24.8888 88.0763 23.5838C88.095 23.572 88.1302 23.5838 88.156 23.5838V23.5414H88.1936L88.156 23.572C87.9341 24.2927 87.5896 24.9694 87.1379 25.5719C86.7813 26.2228 86.4341 26.8761 86.0681 27.5294C84.0224 31.3028 81.2775 34.4276 77.6928 36.7837C77.409 36.97 77.2002 37.1421 77.2635 37.5077C77.3854 37.5012 77.5064 37.483 77.6248 37.4534ZM46.1883 30.0434C47.4434 29.0387 48.7102 28.0506 49.9747 27.0577C50.1084 26.9539 50.2586 26.869 50.3993 26.777C51.4292 26.0459 52.4544 25.3149 53.4867 24.5885C55.7529 22.9989 58.2585 21.8716 60.7593 20.7254C61.6578 20.3127 62.5611 19.9071 63.4619 19.4991C63.8349 19.3316 64.2103 19.176 64.5763 18.992C64.6942 18.945 64.7894 18.8539 64.8419 18.7378C64.8944 18.6217 64.9001 18.4897 64.8578 18.3694C64.7006 17.8977 64.5083 17.452 64.3182 16.9544C62.8918 17.5699 61.503 18.1336 60.1376 18.7656C56.6271 20.356 53.2685 22.2655 50.1037 24.4706C46.2821 27.1874 43.3402 30.666 41.0411 34.7271C41.6743 34.4053 42.2486 33.9779 42.7396 33.4631C43.298 32.8522 43.8845 32.265 44.4569 31.6683C44.8933 30.9844 45.5666 30.5387 46.1883 30.0434ZM62.3757 28.5364L62.2795 28.6071C61.9769 28.9562 61.6883 29.3147 61.3693 29.6496C60.1423 30.9302 58.9529 32.2438 57.6579 33.456C56.8814 34.1776 55.9359 34.7154 55.0773 35.3427C54.8991 35.4653 54.7408 35.6148 54.6081 35.7861L56.5201 35.4087C57.1605 35.0125 57.808 34.6257 58.4415 34.2295C59.6755 33.4418 60.9024 32.64 62.1599 31.8263L62.5024 32.1471L58.5165 36.687L62.1857 36.3167C62.9575 35.8049 63.7247 35.2884 64.4989 34.7837C65.3481 34.2319 66.2044 33.6918 67.056 33.1329C67.1226 33.0818 67.1839 33.0241 67.239 32.9607L67.3328 32.8876L68.3252 31.7084C68.4519 31.3547 68.5762 31.0009 68.7311 30.567C68.2619 30.85 67.8724 31.0929 67.4736 31.3334L64.7616 32.9678L63.1335 33.93L63.0819 33.8876L64.1587 31.8193C64.4355 31.1 64.7077 30.3783 64.9868 29.6566C65.1182 29.317 65.259 28.9821 65.3974 28.6472C65.6672 27.7511 65.951 26.8619 66.2044 25.961C66.4038 25.2535 66.2959 25.0177 65.7094 24.6286C65.3247 24.6451 65.2402 24.9776 65.0807 25.2252C65.0074 25.317 64.924 25.4001 64.832 25.4729C64.7757 25.5507 64.7241 25.6309 64.6654 25.7087C64.1657 26.3714 63.5206 26.9256 63.1757 27.7063L62.3757 28.5364ZM49.9231 57.0398C50.3032 57.0068 50.6269 56.9832 50.9647 56.9502C53.6663 56.6909 56.2484 55.7043 58.4391 54.0942C60.9494 52.2688 63.049 50.0165 64.9962 47.6133C66.1106 46.2384 66.8378 44.6182 67.727 43.1018C67.7434 43.0758 67.727 43.0357 67.727 43.0051C67.4337 43.1584 67.0677 43.2409 66.8543 43.4767C65.8142 44.6009 64.7976 45.7486 63.8044 46.92C63.1391 47.7384 62.3422 48.4391 61.4467 48.993C61.0643 49.375 60.6913 49.7642 60.3018 50.1392C58.5919 51.7724 56.6452 53.1354 54.5283 54.1814C53.2708 54.8082 51.8851 55.1312 50.4815 55.1248C50.3055 55.7615 50.1178 56.3794 49.9231 57.0398ZM71.0677 12.2966C70.1457 13.5347 69.266 14.8083 68.3111 16.0205C67.3423 17.3046 66.2997 18.5307 65.1886 19.6925C63.9264 20.9589 62.5094 22.0697 61.1605 23.2466C60.8766 23.414 60.5975 23.5885 60.3089 23.7442C59.9593 23.9328 59.6051 24.1026 59.2508 24.2819L59.1124 24.3102C58.7863 24.4847 58.4508 24.6474 58.1341 24.8361C57.9238 24.9452 57.734 25.0905 57.5734 25.2653C57.4444 25.4257 57.2872 25.737 57.3529 25.8478C57.492 26.0729 57.7068 26.2402 57.9582 26.3195C59.2039 26.678 60.3253 26.2889 61.4068 25.6875C62.6502 24.9941 63.6613 24.0366 64.5974 22.973C65.9041 21.5061 67.1944 20.0226 68.4918 18.5463C68.5551 18.4732 68.6044 18.3883 68.6607 18.3105L68.7029 18.2562C68.7173 18.1947 68.7354 18.134 68.7569 18.0746C69.3246 16.8766 69.8939 15.6777 70.4648 14.4781C70.9082 13.5347 71.3539 12.6173 71.809 11.6645L71.4876 11.5914C71.4782 11.7518 71.1522 12.1834 71.0677 12.2966ZM44.9238 45.3516C42.7537 45.979 40.5883 46.611 38.6646 47.868C38.0734 48.2548 38.057 48.2312 38.3315 48.901C40.9343 49.0185 43.5307 48.5529 45.9325 47.5379C48.4099 46.4519 50.6579 44.8997 52.5553 42.965C52.6632 42.8588 52.7759 42.7598 52.8861 42.656C53.1465 42.1207 53.4046 41.5853 53.665 41.0476L51.3354 42.4178C51.2322 42.564 51.1595 42.7716 51.0187 42.847C49.97 43.406 48.9073 43.939 47.8539 44.479C46.878 44.7691 45.902 45.0686 44.9238 45.3516ZM73.4724 42.807C75.4623 42.5755 77.3957 41.991 79.1825 41.0806C81.1462 40.1231 82.8705 38.8119 84.5549 37.444C84.6464 37.3685 84.7496 37.3072 84.8458 37.2388L86.2018 35.2483L86.0939 35.1446L84.2546 36.2577C83.1919 36.911 82.1643 37.6397 81.057 38.2058C78.826 39.3449 76.3931 39.8778 73.9627 40.3896C72.6161 40.675 71.3656 41.1584 70.3475 42.1301C70.1434 42.3235 69.958 42.5405 69.7305 42.7834L70.7322 42.9437C71.6542 42.906 72.5621 42.8989 73.4724 42.807ZM51.2275 48.4529C51.2509 48.8491 51.2463 49.2477 51.2556 49.6463L51.6193 49.9033L52.492 48.5897L52.7594 48.0709C52.7778 48.0217 52.8006 47.9744 52.8275 47.9294C53.3952 47.1794 53.9582 46.4247 54.54 45.6842C55.3987 44.5875 56.2174 43.4508 57.3036 42.5522L58.7957 41.3094C58.712 41.3261 58.6297 41.3489 58.5494 41.3778C57.3318 41.9273 56.1095 42.4674 54.899 43.0286C54.1225 43.3966 53.306 43.7008 52.6632 44.3116C52.4826 44.4814 52.2949 44.6394 52.1096 44.8021L51.7366 45.2196C51.0914 46.2266 51.1594 47.3421 51.2275 48.4529ZM68.5246 41.6631L68.3745 41.524L67.7059 42.3895C67.734 42.5782 67.7645 42.7645 67.795 42.9508C68.0742 42.5357 68.4167 42.1537 68.5246 41.6631ZM179.472 86.7577C179.221 83.022 180.645 77.4704 176.162 75.8479C180.286 74.3456 179.5 69.2444 179.193 65.7375C178.13 60.1528 171.299 61.8933 167.179 61.6174V89.1821H170.269V77.4138C177.558 76.8525 176.267 80.5717 176.368 86.1398C176.434 89.8213 176.739 89.2057 180 89.1751C179.638 88.4219 179.457 87.5939 179.472 86.7577ZM173.663 74.5319C172.549 74.6286 171.423 74.6191 170.271 74.6569V64.405C172.554 64.5371 176.12 63.7777 176.277 67.103C176.188 69.676 177.342 74.2041 173.663 74.5319ZM151.904 61.6481H154.954V62.0395C154.954 68.9669 154.958 75.8934 154.966 82.8192C154.969 83.435 155.059 84.0472 155.233 84.6375C155.604 85.9016 156.559 86.5974 157.863 86.654C158.656 86.6893 159.416 86.5856 160.068 86.0832C160.873 85.4606 161.154 84.5715 161.255 83.6116C161.307 83.0503 161.329 82.4867 161.321 81.923C161.321 75.2897 161.321 68.6556 161.321 62.0207V61.6528H164.19V62.0207C164.19 68.8474 164.19 75.6765 164.19 82.5079C164.19 83.8262 164.031 85.1187 163.486 86.3379C162.637 88.2128 161.14 89.1892 159.151 89.4486C157.823 89.6596 156.463 89.4963 155.221 88.977C153.638 88.2694 152.702 87.003 152.28 85.3639C152.059 84.5382 151.942 83.6882 151.93 82.8334C151.902 75.8526 151.914 68.8718 151.914 61.891L151.904 61.6481ZM146.159 61.6481H149.026V61.9829C149.026 68.9402 149.026 75.899 149.026 82.8593C149.044 84.0249 148.82 85.1816 148.369 86.2554C147.541 88.1704 146.039 89.1751 144.026 89.4533C142.859 89.6367 141.666 89.5413 140.542 89.1751C138.581 88.51 137.493 87.0525 137.045 85.0927C136.866 84.3193 136.776 83.5282 136.775 82.7343C136.756 75.829 136.756 68.9244 136.775 62.0207V61.6504H139.803V62.0254C139.803 68.8317 139.803 75.6387 139.803 82.4466C139.796 83.0848 139.862 83.7218 139.998 84.3451C140.43 86.2318 141.875 86.8072 143.482 86.628C145.242 86.4323 145.91 85.1705 146.095 83.7154C146.148 83.263 146.172 82.8077 146.166 82.3523C146.166 75.5916 146.166 68.8309 146.166 62.0702L146.159 61.6481ZM129.42 89.1869H124.878C123.158 80.0096 121.437 70.83 119.717 61.6481H122.844C124.313 69.5392 125.783 77.435 127.255 85.3356H127.325C128.783 77.4366 130.24 69.5376 131.698 61.6386H134.551C132.838 70.8316 131.128 80.0143 129.42 89.1869ZM85.4722 81.1306H87.22C87.22 81.6589 87.1989 82.1872 87.22 82.7131C87.2293 83.319 87.2874 83.9231 87.3936 84.5196C87.8792 86.7483 89.2821 87.8025 91.5789 87.7152C93.6316 87.6398 94.9618 86.4441 95.3325 84.3286C95.5671 82.9277 95.5671 81.5433 94.943 80.225C94.3966 79.1472 93.6098 78.2109 92.644 77.4893C91.5929 76.6591 90.5044 75.8738 89.444 75.0554C88.3414 74.2064 87.3326 73.2725 86.5912 72.0674C85.7943 70.7176 85.4397 69.15 85.5778 67.5864C85.6153 66.5013 85.854 65.4328 86.2816 64.4357C87.1191 62.6173 88.5807 61.6929 90.5185 61.4523C91.4394 61.3221 92.3768 61.375 93.2774 61.608C93.9762 61.7827 94.6271 62.1131 95.1818 62.5748C95.7365 63.0365 96.1809 63.6177 96.482 64.2753C97.1858 65.7257 97.3078 67.2775 97.2656 68.8788H95.4803C95.5153 68.3289 95.5098 67.7771 95.4639 67.228C95.3774 66.5322 95.2097 65.849 94.9642 65.1927C94.4668 63.9616 93.4956 63.28 92.1794 63.1126C90.9126 62.9522 89.7185 63.1126 88.7378 64.0206C88.034 64.6809 87.7033 65.5488 87.539 66.4827C87.2716 68.0133 87.3232 69.5038 88.088 70.9047C88.6095 71.8338 89.3135 72.6467 90.1572 73.2937C91.3161 74.2111 92.5032 75.0837 93.6762 75.9941C94.6672 76.7314 95.5257 77.6335 96.2146 78.6614C97.214 80.2109 97.4228 81.923 97.2539 83.7131C97.1784 84.7414 96.9043 85.7451 96.4468 86.6681C95.6023 88.2859 94.2369 89.135 92.4704 89.3802C91.4111 89.5455 90.3285 89.4722 89.3009 89.1656C87.3162 88.543 86.2511 87.0926 85.749 85.1375C85.4135 83.831 85.4722 82.4961 85.4722 81.1306ZM112.217 61.6433V63.2942H106.621V89.1845H104.82V63.3178H99.2527V61.6433H112.217ZM59.5535 87.5171H68.1539V89.1963H57.7635V61.6575H59.5535V87.5171ZM70.8636 61.6528H72.663V89.1821H70.8636V61.6528ZM80.8388 61.6528H82.6804V61.9994C82.6804 68.7287 82.6804 75.4579 82.6804 82.1872C82.6804 83.4112 82.596 84.6328 82.1878 85.8073C81.5074 87.7765 80.0998 88.8496 78.0705 89.1185C77.1908 89.234 76.2923 89.2293 75.3797 89.2835V87.5737C76.0272 87.5313 76.6676 87.5077 77.3057 87.4464C79.2107 87.2648 80.3931 86.1658 80.6887 84.2743C80.784 83.6642 80.8326 83.0477 80.8341 82.4301C80.8435 75.6364 80.8435 68.8419 80.8341 62.0466L80.8388 61.6528ZM0 89.0666C0.194719 88.2647 0.436358 87.4676 0.572426 86.654C0.708495 85.8403 0.722571 85.0172 0.807027 84.2012C0.947788 82.8782 1.37711 81.6306 1.82285 80.3901C2.29205 79.0788 2.76125 77.7676 3.19527 76.4445C3.62851 75.1887 4.4311 74.0948 5.4967 73.3079C6.38115 72.6145 7.30313 71.966 8.17115 71.2561C10.7236 69.1689 13.2573 67.0605 15.7957 64.9569C16.7481 64.2007 17.4986 63.2185 17.9798 62.0985C18.4091 61.0655 18.2637 60.3132 17.452 59.5373C16.7083 58.8298 15.913 58.1718 15.1904 57.4454C14.8603 57.1209 14.6028 56.7293 14.435 56.2969C13.5623 53.8796 12.7341 51.4481 11.8919 49.0213C11.235 47.1346 11.228 45.196 11.5001 43.2433C11.5564 42.8353 11.5635 42.4202 11.6151 42.0122C11.6206 41.8443 11.6717 41.6812 11.7629 41.5405C12.3729 40.833 12.9711 40.1255 13.6397 39.4816C15.0262 38.1468 16.7083 37.2577 18.4209 36.4323C19.1669 36.0714 19.9364 35.7578 20.6707 35.3733C22.1205 34.6187 23.6384 34.5503 25.2032 34.8309C26.1557 35.0007 27.1175 35.1422 28.0606 35.3568C28.3312 35.4515 28.5603 35.6384 28.7081 35.8851C29.2712 36.7671 29.7873 37.6822 30.3292 38.5784C30.7093 39.2081 31.0706 39.8519 31.5022 40.4462C31.7678 40.839 32.1045 41.1782 32.4946 41.4462C33.3298 41.9744 34.2213 42.4107 35.0752 42.8942C35.5068 43.1142 35.9223 43.3649 36.3186 43.6442C37.0412 44.1984 37.1983 44.9625 36.7878 45.7809C36.6306 46.0993 36.4242 46.3917 36.2294 46.7242L37.7872 49.3467C37.5995 49.6486 37.4103 49.9505 37.2195 50.2524C37.081 50.4882 36.9403 50.7122 36.7854 50.9599C37.02 51.099 37.2546 51.2264 37.4892 51.3655C38.4277 51.9292 38.6834 52.5235 38.5262 53.6036C38.4253 54.0901 38.3727 54.5854 38.369 55.0823C38.3976 55.6748 38.5041 56.2608 38.6857 56.8252C39.0845 58.0232 38.8734 58.8204 37.8083 59.5066C37.2484 59.8701 36.6636 60.1932 36.0582 60.4736C33.6183 61.5891 32.1568 63.5017 31.4975 66.07C31.3239 66.7374 31.2371 67.4284 31.1128 68.11C31.0565 68.419 31.2747 68.5958 31.4694 68.7562C32.0027 69.198 32.5446 69.628 33.0952 70.0462C35.0517 71.5249 37.0036 73.0107 38.9766 74.4659C40.5883 75.645 41.6464 77.2464 42.3643 79.0835C43.3516 81.7087 44.1974 84.3854 44.8979 87.102C45.1443 88.01 45.3883 88.9156 45.6416 89.8614C45.5173 89.8614 45.407 89.8755 45.3155 89.8755H11.4391C8.03978 89.8755 4.63572 89.8637 1.23635 89.8614C1.04335 89.8707 0.852063 89.9024 0.666267 89.9557C0.55238 90.003 0.426495 90.0127 0.306755 89.9835C0.187015 89.9542 0.0796032 89.8875 0 89.793V89.0666Z" fill="white"/>
<path fill-rule="evenodd" clip-rule="evenodd" d="M81.6013 0C81.9344 0.720092 82.2683 1.43861 82.603 2.15556C82.7907 2.76402 82.9784 3.37012 83.1684 3.97859C83.3274 4.43968 83.3116 4.94356 83.1238 5.39361C82.7344 6.30631 82.4013 7.24966 81.9766 8.1482C81.172 9.82737 80.2781 11.4499 78.9784 12.8202C78.4412 13.3814 77.9204 13.9593 77.3925 14.53L76.5996 15.2682C76.7075 14.504 76.806 13.839 77.1955 13.2282C78.1904 11.739 79.0166 10.1427 79.6588 8.46894C80.1538 7.10108 80.318 5.67662 80.433 4.24273C80.5362 2.91496 80.6183 1.58719 80.7098 0.259422C80.7098 0.172162 80.7426 0.0896185 80.7567 0.00471687L81.6013 0ZM77.6248 37.4534C79.1612 36.8791 80.5999 36.0692 81.8898 35.0526C84.393 33.0951 86.4317 30.6967 88.2733 28.1308C90.0023 25.7181 91.2504 23.0154 92.7519 20.4637C93.0381 19.9778 92.8739 19.6854 92.3132 19.5533C91.2833 19.3175 90.4059 19.6335 89.6035 20.2608C89.0288 20.716 88.4446 21.1617 87.8651 21.6146L84.8787 23.9517L84.7919 23.9942L84.8341 23.8904C84.9819 23.6286 85.1156 23.3574 85.2798 23.1074C85.5684 22.664 85.8968 22.2442 86.1737 21.7938C87.1496 20.1995 88.1161 18.6005 89.0733 16.9968C90.7155 14.247 92.217 11.4476 92.8692 8.24961C93.2117 6.55865 93.5894 4.89128 93.4721 3.13193C93.4369 2.63903 93.4721 2.14141 93.4721 1.65558C92.583 1.8584 91.9214 2.31829 91.5671 3.16495C91.4991 3.31188 91.4207 3.45375 91.3325 3.58946C90.6897 4.70261 90.1079 5.85822 89.3877 6.91477C87.5695 9.57502 85.2353 11.7518 82.7884 13.8107L79.7479 16.353C79.9426 16.2998 80.1338 16.2344 80.3204 16.1573C81.2588 15.6856 82.2887 15.3389 83.1356 14.7422C84.8575 13.53 86.488 12.1881 88.1537 10.8981C88.6933 10.4806 89.2282 10.0538 89.8076 9.59861C89.7419 9.92406 89.695 10.1764 89.6411 10.4264C89.4698 11.207 89.376 12.0159 89.1085 12.7612C88.1068 15.5464 86.6593 18.1124 85.057 20.5839C83.4969 22.9918 81.5895 25.1191 79.5696 27.1473C79.3563 27.3968 79.1626 27.6625 78.9902 27.9421C79.1329 27.963 79.2784 27.9534 79.4171 27.9138L81.2728 27.5011C83.5375 26.1945 85.8053 24.8888 88.0763 23.5838C88.095 23.572 88.1302 23.5838 88.156 23.5838V23.5414H88.1936L88.156 23.572C87.9341 24.2927 87.5896 24.9694 87.1379 25.5719C86.7813 26.2228 86.4341 26.8761 86.0681 27.5294C84.0224 31.3028 81.2775 34.4276 77.6928 36.7837C77.409 36.97 77.2002 37.1421 77.2635 37.5077C77.3854 37.5012 77.5064 37.483 77.6248 37.4534ZM46.1883 30.0434C47.4434 29.0387 48.7102 28.0506 49.9747 27.0577C50.1084 26.9539 50.2586 26.869 50.3993 26.777C51.4292 26.0459 52.4544 25.3149 53.4867 24.5885C55.7529 22.9989 58.2585 21.8716 60.7593 20.7254C61.6578 20.3127 62.5611 19.9071 63.4619 19.4991C63.8349 19.3316 64.2103 19.176 64.5763 18.992C64.6942 18.945 64.7894 18.8539 64.8419 18.7378C64.8944 18.6217 64.9001 18.4897 64.8578 18.3694C64.7006 17.8977 64.5083 17.452 64.3182 16.9544C62.8918 17.5699 61.503 18.1336 60.1376 18.7656C56.6271 20.356 53.2685 22.2655 50.1037 24.4706C46.2821 27.1874 43.3402 30.666 41.0411 34.7271C41.6743 34.4053 42.2486 33.9779 42.7396 33.4631C43.298 32.8522 43.8845 32.265 44.4569 31.6683C44.8933 30.9844 45.5666 30.5387 46.1883 30.0434ZM62.3757 28.5364L62.2795 28.6071C61.9769 28.9562 61.6883 29.3147 61.3693 29.6496C60.1423 30.9302 58.9529 32.2438 57.6579 33.456C56.8814 34.1776 55.9359 34.7154 55.0773 35.3427C54.8991 35.4653 54.7408 35.6148 54.6081 35.7861L56.5201 35.4087C57.1605 35.0125 57.808 34.6257 58.4415 34.2295C59.6755 33.4418 60.9024 32.64 62.1599 31.8263L62.5024 32.1471L58.5165 36.687L62.1857 36.3167C62.9575 35.8049 63.7247 35.2884 64.4989 34.7837C65.3481 34.2319 66.2044 33.6918 67.056 33.1329C67.1226 33.0818 67.1839 33.0241 67.239 32.9607L67.3328 32.8876L68.3252 31.7084C68.4519 31.3547 68.5762 31.0009 68.7311 30.567C68.2619 30.85 67.8724 31.0929 67.4736 31.3334L64.7616 32.9678L63.1335 33.93L63.0819 33.8876L64.1587 31.8193C64.4355 31.1 64.7077 30.3783 64.9868 29.6566C65.1182 29.317 65.259 28.9821 65.3974 28.6472C65.6672 27.7511 65.951 26.8619 66.2044 25.961C66.4038 25.2535 66.2959 25.0177 65.7094 24.6286C65.3247 24.6451 65.2402 24.9776 65.0807 25.2252C65.0074 25.317 64.924 25.4001 64.832 25.4729C64.7757 25.5507 64.7241 25.6309 64.6654 25.7087C64.1657 26.3714 63.5206 26.9256 63.1757 27.7063L62.3757 28.5364ZM49.9231 57.0398C50.3032 57.0068 50.6269 56.9832 50.9647 56.9502C53.6663 56.6909 56.2484 55.7043 58.4391 54.0942C60.9494 52.2688 63.049 50.0165 64.9962 47.6133C66.1106 46.2384 66.8378 44.6182 67.727 43.1018C67.7434 43.0758 67.727 43.0357 67.727 43.0051C67.4337 43.1584 67.0677 43.2409 66.8543 43.4767C65.8142 44.6009 64.7976 45.7486 63.8044 46.92C63.1391 47.7384 62.3422 48.4391 61.4467 48.993C61.0643 49.375 60.6913 49.7642 60.3018 50.1392C58.5919 51.7724 56.6452 53.1354 54.5283 54.1814C53.2708 54.8082 51.8851 55.1312 50.4815 55.1248C50.3055 55.7615 50.1178 56.3794 49.9231 57.0398ZM71.0677 12.2966C70.1457 13.5347 69.266 14.8083 68.3111 16.0205C67.3423 17.3046 66.2997 18.5307 65.1886 19.6925C63.9264 20.9589 62.5094 22.0697 61.1605 23.2466C60.8766 23.414 60.5975 23.5885 60.3089 23.7442C59.9593 23.9328 59.6051 24.1026 59.2508 24.2819L59.1124 24.3102C58.7863 24.4847 58.4508 24.6474 58.1341 24.8361C57.9238 24.9452 57.734 25.0905 57.5734 25.2653C57.4444 25.4257 57.2872 25.737 57.3529 25.8478C57.492 26.0729 57.7068 26.2402 57.9582 26.3195C59.2039 26.678 60.3253 26.2889 61.4068 25.6875C62.6502 24.9941 63.6613 24.0366 64.5974 22.973C65.9041 21.5061 67.1944 20.0226 68.4918 18.5463C68.5551 18.4732 68.6044 18.3883 68.6607 18.3105L68.7029 18.2562C68.7173 18.1947 68.7354 18.134 68.7569 18.0746C69.3246 16.8766 69.8939 15.6777 70.4648 14.4781C70.9082 13.5347 71.3539 12.6173 71.809 11.6645L71.4876 11.5914C71.4782 11.7518 71.1522 12.1834 71.0677 12.2966ZM44.9238 45.3516C42.7537 45.979 40.5883 46.611 38.6646 47.868C38.0734 48.2548 38.057 48.2312 38.3315 48.901C40.9343 49.0185 43.5307 48.5529 45.9325 47.5379C48.4099 46.4519 50.6579 44.8997 52.5553 42.965C52.6632 42.8588 52.7759 42.7598 52.8861 42.656C53.1465 42.1207 53.4046 41.5853 53.665 41.0476L51.3354 42.4178C51.2322 42.564 51.1595 42.7716 51.0187 42.847C49.97 43.406 48.9073 43.939 47.8539 44.479C46.878 44.7691 45.902 45.0686 44.9238 45.3516ZM73.4724 42.807C75.4623 42.5755 77.3957 41.991 79.1825 41.0806C81.1462 40.1231 82.8705 38.8119 84.5549 37.444C84.6464 37.3685 84.7496 37.3072 84.8458 37.2388L86.2018 35.2483L86.0939 35.1446L84.2546 36.2577C83.1919 36.911 82.1643 37.6397 81.057 38.2058C78.826 39.3449 76.3931 39.8778 73.9627 40.3896C72.6161 40.675 71.3656 41.1584 70.3475 42.1301C70.1434 42.3235 69.958 42.5405 69.7305 42.7834L70.7322 42.9437C71.6542 42.906 72.5621 42.8989 73.4724 42.807ZM51.2275 48.4529C51.2509 48.8491 51.2463 49.2477 51.2556 49.6463L51.6193 49.9033L52.492 48.5897L52.7594 48.0709C52.7778 48.0217 52.8006 47.9744 52.8275 47.9294C53.3952 47.1794 53.9582 46.4247 54.54 45.6842C55.3987 44.5875 56.2174 43.4508 57.3036 42.5522L58.7957 41.3094C58.712 41.3261 58.6297 41.3489 58.5494 41.3778C57.3318 41.9273 56.1095 42.4674 54.899 43.0286C54.1225 43.3966 53.306 43.7008 52.6632 44.3116C52.4826 44.4814 52.2949 44.6394 52.1096 44.8021L51.7366 45.2196C51.0914 46.2266 51.1594 47.3421 51.2275 48.4529ZM68.5246 41.6631L68.3745 41.524L67.7059 42.3895C67.734 42.5782 67.7645 42.7645 67.795 42.9508C68.0742 42.5357 68.4167 42.1537 68.5246 41.6631ZM179.472 86.7577C179.221 83.022 180.645 77.4704 176.162 75.8479C180.286 74.3456 179.5 69.2444 179.193 65.7375C178.13 60.1528 171.299 61.8933 167.179 61.6174V89.1821H170.269V77.4138C177.558 76.8525 176.267 80.5717 176.368 86.1398C176.434 89.8213 176.739 89.2057 180 89.1751C179.638 88.4219 179.457 87.5939 179.472 86.7577ZM173.663 74.5319C172.549 74.6286 171.423 74.6191 170.271 74.6569V64.405C172.554 64.5371 176.12 63.7777 176.277 67.103C176.188 69.676 177.342 74.2041 173.663 74.5319ZM151.904 61.6481H154.954V62.0395C154.954 68.9669 154.958 75.8934 154.966 82.8192C154.969 83.435 155.059 84.0472 155.233 84.6375C155.604 85.9016 156.559 86.5974 157.863 86.654C158.656 86.6893 159.416 86.5856 160.068 86.0832C160.873 85.4606 161.154 84.5715 161.255 83.6116C161.307 83.0503 161.329 82.4867 161.321 81.923C161.321 75.2897 161.321 68.6556 161.321 62.0207V61.6528H164.19V62.0207C164.19 68.8474 164.19 75.6765 164.19 82.5079C164.19 83.8262 164.031 85.1187 163.486 86.3379C162.637 88.2128 161.14 89.1892 159.151 89.4486C157.823 89.6596 156.463 89.4963 155.221 88.977C153.638 88.2694 152.702 87.003 152.28 85.3639C152.059 84.5382 151.942 83.6882 151.93 82.8334C151.902 75.8526 151.914 68.8718 151.914 61.891L151.904 61.6481ZM146.159 61.6481H149.026V61.9829C149.026 68.9402 149.026 75.899 149.026 82.8593C149.044 84.0249 148.82 85.1816 148.369 86.2554C147.541 88.1704 146.039 89.1751 144.026 89.4533C142.859 89.6367 141.666 89.5413 140.542 89.1751C138.581 88.51 137.493 87.0525 137.045 85.0927C136.866 84.3193 136.776 83.5282 136.775 82.7343C136.756 75.829 136.756 68.9244 136.775 62.0207V61.6504H139.803V62.0254C139.803 68.8317 139.803 75.6387 139.803 82.4466C139.796 83.0848 139.862 83.7218 139.998 84.3451C140.43 86.2318 141.875 86.8072 143.482 86.628C145.242 86.4323 145.91 85.1705 146.095 83.7154C146.148 83.263 146.172 82.8077 146.166 82.3523C146.166 75.5916 146.166 68.8309 146.166 62.0702L146.159 61.6481ZM129.42 89.1869H124.878C123.158 80.0096 121.437 70.83 119.717 61.6481H122.844C124.313 69.5392 125.783 77.435 127.255 85.3356H127.325C128.783 77.4366 130.24 69.5376 131.698 61.6386H134.551C132.838 70.8316 131.128 80.0143 129.42 89.1869ZM85.4722 81.1306H87.22C87.22 81.6589 87.1989 82.1872 87.22 82.7131C87.2293 83.319 87.2874 83.9231 87.3936 84.5196C87.8792 86.7483 89.2821 87.8025 91.5789 87.7152C93.6316 87.6398 94.9618 86.4441 95.3325 84.3286C95.5671 82.9277 95.5671 81.5433 94.943 80.225C94.3966 79.1472 93.6098 78.2109 92.644 77.4893C91.5929 76.6591 90.5044 75.8738 89.444 75.0554C88.3414 74.2064 87.3326 73.2725 86.5912 72.0674C85.7943 70.7176 85.4397 69.15 85.5778 67.5864C85.6153 66.5013 85.854 65.4328 86.2816 64.4357C87.1191 62.6173 88.5807 61.6929 90.5185 61.4523C91.4394 61.3221 92.3768 61.375 93.2774 61.608C93.9762 61.7827 94.6271 62.1131 95.1818 62.5748C95.7365 63.0365 96.1809 63.6177 96.482 64.2753C97.1858 65.7257 97.3078 67.2775 97.2656 68.8788H95.4803C95.5153 68.3289 95.5098 67.7771 95.4639 67.228C95.3774 66.5322 95.2097 65.849 94.9642 65.1927C94.4668 63.9616 93.4956 63.28 92.1794 63.1126C90.9126 62.9522 89.7185 63.1126 88.7378 64.0206C88.034 64.6809 87.7033 65.5488 87.539 66.4827C87.2716 68.0133 87.3232 69.5038 88.088 70.9047C88.6095 71.8338 89.3135 72.6467 90.1572 73.2937C91.3161 74.2111 92.5032 75.0837 93.6762 75.9941C94.6672 76.7314 95.5257 77.6335 96.2146 78.6614C97.214 80.2109 97.4228 81.923 97.2539 83.7131C97.1784 84.7414 96.9043 85.7451 96.4468 86.6681C95.6023 88.2859 94.2369 89.135 92.4704 89.3802C91.4111 89.5455 90.3285 89.4722 89.3009 89.1656C87.3162 88.543 86.2511 87.0926 85.749 85.1375C85.4135 83.831 85.4722 82.4961 85.4722 81.1306ZM112.217 61.6433V63.2942H106.621V89.1845H104.82V63.3178H99.2527V61.6433H112.217ZM59.5535 87.5171H68.1539V89.1963H57.7635V61.6575H59.5535V87.5171ZM70.8636 61.6528H72.663V89.1821H70.8636V61.6528ZM80.8388 61.6528H82.6804V61.9994C82.6804 68.7287 82.6804 75.4579 82.6804 82.1872C82.6804 83.4112 82.596 84.6328 82.1878 85.8073C81.5074 87.7765 80.0998 88.8496 78.0705 89.1185C77.1908 89.234 76.2923 89.2293 75.3797 89.2835V87.5737C76.0272 87.5313 76.6676 87.5077 77.3057 87.4464C79.2107 87.2648 80.3931 86.1658 80.6887 84.2743C80.784 83.6642 80.8326 83.0477 80.8341 82.4301C80.8435 75.6364 80.8435 68.8419 80.8341 62.0466L80.8388 61.6528ZM0 89.0666C0.194719 88.2647 0.436358 87.4676 0.572426 86.654C0.708495 85.8403 0.722571 85.0172 0.807027 84.2012C0.947788 82.8782 1.37711 81.6306 1.82285 80.3901C2.29205 79.0788 2.76125 77.7676 3.19527 76.4445C3.62851 75.1887 4.4311 74.0948 5.4967 73.3079C6.38115 72.6145 7.30313 71.966 8.17115 71.2561C10.7236 69.1689 13.2573 67.0605 15.7957 64.9569C16.7481 64.2007 17.4986 63.2185 17.9798 62.0985C18.4091 61.0655 18.2637 60.3132 17.452 59.5373C16.7083 58.8298 15.913 58.1718 15.1904 57.4454C14.8603 57.1209 14.6028 56.7293 14.435 56.2969C13.5623 53.8796 12.7341 51.4481 11.8919 49.0213C11.235 47.1346 11.228 45.196 11.5001 43.2433C11.5564 42.8353 11.5635 42.4202 11.6151 42.0122C11.6206 41.8443 11.6717 41.6812 11.7629 41.5405C12.3729 40.833 12.9711 40.1255 13.6397 39.4816C15.0262 38.1468 16.7083 37.2577 18.4209 36.4323C19.1669 36.0714 19.9364 35.7578 20.6707 35.3733C22.1205 34.6187 23.6384 34.5503 25.2032 34.8309C26.1557 35.0007 27.1175 35.1422 28.0606 35.3568C28.3312 35.4515 28.5603 35.6384 28.7081 35.8851C29.2712 36.7671 29.7873 37.6822 30.3292 38.5784C30.7093 39.2081 31.0706 39.8519 31.5022 40.4462C31.7678 40.839 32.1045 41.1782 32.4946 41.4462C33.3298 41.9744 34.2213 42.4107 35.0752 42.8942C35.5068 43.1142 35.9223 43.3649 36.3186 43.6442C37.0412 44.1984 37.1983 44.9625 36.7878 45.7809C36.6306 46.0993 36.4242 46.3917 36.2294 46.7242L37.7872 49.3467C37.5995 49.6486 37.4103 49.9505 37.2195 50.2524C37.081 50.4882 36.9403 50.7122 36.7854 50.9599C37.02 51.099 37.2546 51.2264 37.4892 51.3655C38.4277 51.9292 38.6834 52.5235 38.5262 53.6036C38.4253 54.0901 38.3727 54.5854 38.369 55.0823C38.3976 55.6748 38.5041 56.2608 38.6857 56.8252C39.0845 58.0232 38.8734 58.8204 37.8083 59.5066C37.2484 59.8701 36.6636 60.1932 36.0582 60.4736C33.6183 61.5891 32.1568 63.5017 31.4975 66.07C31.3239 66.7374 31.2371 67.4284 31.1128 68.11C31.0565 68.419 31.2747 68.5958 31.4694 68.7562C32.0027 69.198 32.5446 69.628 33.0952 70.0462C35.0517 71.5249 37.0036 73.0107 38.9766 74.4659C40.5883 75.645 41.6464 77.2464 42.3643 79.0835C43.3516 81.7087 44.1974 84.3854 44.8979 87.102C45.1443 88.01 45.3883 88.9156 45.6416 89.8614C45.5173 89.8614 45.407 89.8755 45.3155 89.8755H11.4391C8.03978 89.8755 4.63572 89.8637 1.23635 89.8614C1.04335 89.8707 0.852063 89.9024 0.666267 89.9557C0.55238 90.003 0.426495 90.0127 0.306755 89.9835C0.187015 89.9542 0.0796032 89.8875 0 89.793V89.0666Z" fill="white"/>
</svg>
