<svg width="359" height="311" viewBox="0 0 359 311" fill="none" xmlns="http://www.w3.org/2000/svg">
<path fill-rule="evenodd" clip-rule="evenodd" d="M193.387 103.225C195.773 102.561 198.167 101.952 200.534 101.234C208.375 98.87 216.198 96.4607 224.038 94.106C224.957 93.9028 225.89 93.769 226.829 93.706C225.578 94.3788 224.29 95.0061 223.075 95.7334C222.268 96.154 221.54 96.714 220.924 97.3881C220.429 98.0063 219.825 99.2064 220.078 99.6337C220.611 100.501 221.435 101.146 222.4 101.452C227.18 102.834 231.483 101.334 235.633 99.0154C240.404 96.3425 244.284 92.6514 247.875 88.5512C252.889 82.8963 257.84 77.1777 262.818 71.4865C263.061 71.2046 263.251 70.8773 263.467 70.5773L263.629 70.3682C264.673 69.5954 265.78 68.8863 266.752 68.0317C268.976 66.1043 271.19 64.1678 273.297 62.1131C274.465 60.8754 275.567 59.5766 276.6 58.222C276.987 57.7674 277.293 57.3128 278.014 57.8401C278.149 57.9128 278.267 58.0161 278.356 58.1419C278.446 58.2678 278.506 58.4129 278.531 58.5659C278.557 58.719 278.547 58.8758 278.502 59.0243C278.458 59.1728 278.38 59.3089 278.275 59.4221C273.711 66.6225 269.138 73.823 264.628 81.0507C261.594 85.9328 257.255 89.5967 253.33 93.6515C252.907 94.097 252.529 94.5606 252.124 95.0516C250.648 95.1152 250.324 96.3971 249.712 97.3517C249.431 97.7054 249.11 98.0257 248.758 98.3063C246.444 99.07 244.122 99.7791 241.835 100.588C231.933 104.061 222.031 107.461 212.255 111.089C206.854 113.098 201.453 115.344 196.214 117.762C190.68 120.407 185.531 123.805 180.91 127.863C173.757 134.131 167.531 141.402 162.421 149.455C161.79 150.428 161.232 151.437 159.666 150.782L161.637 145.709C164.5 138.327 167.363 130.945 170.225 123.562C170.377 123.092 170.497 122.612 170.585 122.126C172.26 119.399 174.852 117.726 177.238 115.816C182.054 111.944 186.915 108.134 191.767 104.307C192.271 103.907 192.847 103.579 193.387 103.225ZM313.481 69.4227C301.049 77.4959 288.447 85.2964 275.925 93.2696C272.234 95.6243 268.319 97.7063 265.384 101.106C264.583 102.016 263.872 103.025 263.124 103.988L262.818 104.052L263.124 104.252C263.12 104.164 263.12 104.076 263.124 103.988C264.844 103.443 266.581 102.934 268.283 102.334C273.153 100.616 277.978 98.6972 282.902 97.1608C285.458 96.507 288.053 96.0181 290.67 95.6971C291.103 95.6799 291.537 95.7012 291.966 95.7607C290.832 97.579 289.869 99.17 288.798 100.725C282.1 110.471 273.036 117.271 262.512 122.262C262.395 122.294 262.274 122.313 262.152 122.317L258.344 126.863C259.452 126.554 260.568 126.308 261.648 125.953C266.23 124.399 270.794 122.808 275.367 121.235C275.571 121.187 275.779 121.157 275.988 121.144C270.884 134.781 253.483 143.536 238.63 140.045L224.533 141.427L239.837 123.853L238.522 122.617C233.697 125.753 228.989 128.845 224.254 131.881C221.824 133.445 219.339 134.936 216.882 136.427C216.772 136.684 216.619 136.921 216.432 137.127C215.082 138.236 213.731 139.309 212.354 140.4C209.5 142.673 206.53 144.809 203.829 147.255C199.067 151.546 197.195 157.183 197.006 163.483L205.945 158.201C206.701 157.701 207.43 157.155 208.222 156.71C209.394 155.932 210.643 155.279 211.949 154.764C216.963 153.228 222.013 151.791 227.063 150.391C235.165 148.128 243.311 145.846 251.449 143.7C257.039 142.209 262.665 140.863 268.265 139.436C273.234 138.163 278.194 136.881 283.145 135.59L294.406 132.708C291.039 131.59 288.015 130.599 285.008 129.59C282.307 128.681 282.244 128.399 284.036 126.153C286.151 123.49 288.285 120.826 290.463 118.208C296.313 111.448 301.809 104.383 306.928 97.0426C309.052 93.8697 311.05 90.5876 312.923 87.2511C317.604 78.8869 322.186 70.4682 326.777 62.0586C327.515 60.704 328.1 59.2493 328.748 57.8492C327.848 58.5856 326.948 59.3311 325.967 60.0494C321.817 63.1678 317.838 66.5861 313.481 69.4227Z" fill="#F9E39A"/>
<path fill-rule="evenodd" clip-rule="evenodd" d="M271.406 165.574C274.908 165.401 278.428 165.374 281.92 165.019C289.556 164.127 296.975 161.874 303.831 158.364C311.366 154.673 317.982 149.618 324.445 144.345C324.796 144.054 325.192 143.818 325.562 143.554C321.476 150.05 316.103 155.622 309.781 159.919C301.174 165.441 291.581 169.211 281.542 171.02C278.302 171.647 275.034 172.22 271.748 172.529C270.06 172.547 268.377 172.339 266.743 171.911C265.996 171.774 265.915 170.501 266.59 169.883C268.184 168.456 269.795 167.047 271.406 165.574ZM145.065 190.121C144.345 191.285 143.619 192.448 142.887 193.612C146.406 193.612 149.926 193.612 153.446 193.612C157.632 193.539 161.818 193.23 165.769 191.712C170.513 189.894 175.194 187.893 179.902 185.966C182.189 185.057 184.466 184.066 186.744 183.111C187.968 182.093 189.156 181.038 190.425 180.075C192.847 178.256 195.304 176.438 197.753 174.62C197.996 174.491 198.253 174.39 198.518 174.32L199.949 172.711C200.049 172.365 200.182 172.03 200.346 171.711C201.75 169.474 202.902 167.165 202.929 164.437C202.506 164.837 202.074 165.219 201.66 165.628C194.379 173.087 185.753 179.07 176.248 183.257C167.031 187.168 157.069 188.963 147.081 188.512C146.415 189.066 145.74 189.612 145.065 190.157V190.121Z" fill="#F7C747"/>
<path fill-rule="evenodd" clip-rule="evenodd" d="M296.431 144.646C294.37 145.364 292.318 146.1 290.238 146.782C284.837 148.6 279.436 150.628 273.756 151.328C270.389 151.728 266.995 151.901 263.62 152.237C251.409 153.226 239.298 155.211 227.405 158.174C226.755 158.456 226.148 158.833 225.605 159.292C225.284 159.356 224.968 159.444 224.66 159.556C219.988 161.674 215.298 163.756 210.653 165.92C207.673 167.338 204.54 168.511 202.074 170.865C201.381 171.52 200.661 172.129 199.949 172.756C200.049 172.411 200.182 172.076 200.345 171.756C201.75 169.52 202.902 167.211 202.929 164.483C203.928 162.419 204.918 160.356 205.918 158.283C206.674 157.783 207.403 157.237 208.195 156.792C209.367 156.013 210.616 155.361 211.922 154.846C216.936 153.31 221.986 151.873 227.036 150.473C235.138 148.209 243.284 145.927 251.422 143.782C257.012 142.291 262.638 140.945 268.238 139.518C273.207 138.245 278.167 136.963 283.118 135.672L294.379 132.79C291.012 131.672 287.988 130.681 284.981 129.672C282.281 128.763 282.218 128.481 284.009 126.235C286.124 123.572 288.258 120.908 290.436 118.289C296.298 111.504 301.803 104.412 306.928 97.0426C309.052 93.8697 311.05 90.5876 312.923 87.2511C317.604 78.8869 322.186 70.4682 326.777 62.0586C327.29 60.999 327.656 59.8733 327.866 58.7129L328.766 57.8038C327.866 58.5493 326.903 59.313 325.949 60.0312C321.799 63.195 317.847 66.6134 313.463 69.45C301.049 77.4959 288.447 85.2964 275.925 93.2696C272.234 95.6243 268.319 97.7063 265.384 101.106C264.583 102.016 263.872 103.025 263.116 103.988L262.8 104.052L263.107 104.252C262.545 104.433 261.995 104.649 261.459 104.898C257.93 106.716 254.42 108.634 250.909 110.516C251.944 107.061 253.033 103.634 254.006 100.161C254.771 97.4335 254.357 96.5244 252.106 95.0243C252.511 94.5606 252.889 94.0697 253.312 93.6242C257.237 89.5694 261.576 85.9055 264.61 81.0234C269.111 73.7957 273.693 66.5952 278.257 59.3948C278.362 59.2816 278.44 59.1455 278.484 58.997C278.529 58.8485 278.539 58.6917 278.513 58.5387C278.488 58.3856 278.428 58.2405 278.338 58.1147C278.249 57.9888 278.131 57.8855 277.996 57.8129C277.275 57.2674 276.969 57.7401 276.582 58.1947C275.549 59.5493 274.447 60.8481 273.279 62.0859C271.172 64.1405 268.958 66.077 266.734 68.0044C265.762 68.859 264.655 69.5682 263.611 70.3409C263.666 70.1037 263.735 69.8699 263.818 69.6409C265.996 65.0224 268.181 60.4009 270.371 55.7764C272.072 52.1398 273.783 48.6032 275.529 44.9303L274.296 44.6484C275.952 40.83 277.564 36.9934 279.355 33.2386C279.571 32.8022 280.795 32.8568 281.686 32.6477C282.082 38.2935 282.461 43.5574 282.839 48.876C283.406 56.8401 281.317 64.3315 278.941 71.8138C278.32 73.7593 277.726 75.714 277.14 77.6687C276.69 79.1506 276.699 79.1506 277.978 80.3961L279.724 79.3597L304.848 63.9042C305.245 63.6254 305.624 63.3218 305.982 62.995C306.729 62.79 307.463 62.538 308.179 62.2404C311.78 60.4221 315.731 59.0857 318.981 56.7855C325.598 52.1125 331.854 46.9395 338.245 41.9664C340.316 40.3573 342.368 38.7117 344.591 36.957C344.339 38.2117 344.159 39.1844 343.952 40.1481C343.295 43.1574 342.935 46.2758 341.909 49.1487C338.065 59.8857 332.511 69.7773 326.363 79.3051C320.376 88.5875 313.058 96.788 305.307 104.607C304.489 105.568 303.746 106.593 303.084 107.671C303.631 107.751 304.19 107.714 304.722 107.561L311.843 105.97C311.582 107.243 311.312 108.516 310.942 110.216C312.349 109.773 313.728 109.248 315.074 108.643C321.007 105.516 326.894 102.279 332.799 99.1518C333.276 98.9348 333.766 98.7495 334.266 98.5972C332.898 101.106 331.566 103.625 330.161 106.143C322.312 120.69 311.78 132.736 298.025 141.818C296.99 142.573 296.188 143.236 296.431 144.646ZM248.118 99.1882C248.343 98.8973 248.542 98.5881 248.758 98.279C246.444 99.0427 244.122 99.7518 241.835 100.561C231.933 104.034 222.031 107.434 212.255 111.062C206.854 113.071 201.453 115.316 196.214 117.735C190.68 120.38 185.531 123.778 180.91 127.835C173.755 134.112 167.529 141.393 162.421 149.455C161.79 150.428 161.232 151.437 159.666 150.782L161.637 145.709C164.5 138.327 167.363 130.945 170.225 123.562C170.377 123.092 170.497 122.612 170.585 122.126C168.389 124.426 166.138 126.672 163.996 129.045C162.112 131.029 159.908 132.677 157.479 133.918C157.29 134.327 157.065 134.718 156.911 135.145C155.279 139.563 153.653 143.985 152.032 148.409C150.403 152.828 148.765 157.246 147.162 161.683C147.094 161.88 147.069 162.09 147.091 162.297C147.113 162.505 147.18 162.705 147.288 162.883C147.445 163.05 147.638 163.178 147.852 163.256C148.066 163.335 148.295 163.363 148.522 163.338C153.428 161.583 158.424 159.956 163.177 157.883C169.028 155.355 173.223 151.073 175.131 144.755C175.505 143.645 175.988 142.576 176.572 141.564C179.902 135.445 185.078 131.381 191.254 128.581C206.857 121.49 222.499 114.462 238.18 107.498C239.441 106.934 240.998 107.061 242.411 106.87C243.725 103.87 246.201 101.734 248.118 99.1791V99.1882ZM209.23 208.868C217.356 204.821 224.826 199.552 231.384 193.239C232.878 191.794 234.31 190.294 235.777 188.821C234.9 188.783 234.022 188.804 233.148 188.885C228.281 189.667 223.42 190.479 218.565 191.321C212.731 192.353 206.728 191.073 201.804 187.748C201.649 187.614 201.518 187.454 201.417 187.275L198.068 192.339L200.436 193.249C199.931 193.729 199.395 194.175 198.833 194.585C197.393 195.494 195.917 196.312 194.467 197.194C190.939 199.349 188.931 202.749 187.365 206.413C186.465 208.531 187.131 210.168 189.246 211.15C190.699 211.725 192.187 212.202 193.702 212.577C199.094 212.579 204.411 211.309 209.23 208.868ZM238.09 110.534C232.428 113.835 226.739 117.089 221.122 120.471C206.593 129.199 195.016 140.845 187.32 156.164C184.907 160.956 183.242 165.938 183.62 171.429C187.671 169.347 191.722 167.292 195.764 165.138C196.304 164.847 196.583 164.047 196.979 163.483C197.168 157.183 199.04 151.546 203.802 147.255C206.503 144.809 209.473 142.709 212.327 140.4C213.686 139.309 215.028 138.236 216.405 137.127C216.593 136.921 216.745 136.684 216.855 136.427L209.518 137.882C210.028 137.221 210.635 136.645 211.319 136.172C214.649 133.772 218.277 131.699 221.221 128.899C226.244 124.317 230.835 119.217 235.516 114.316C236.74 113.035 237.847 111.644 239.009 110.298C238.695 110.36 238.387 110.452 238.09 110.571V110.534ZM235.966 86.651C237.514 84.1964 239.18 81.8235 240.782 79.3779C241.682 77.9687 242.582 76.5322 243.482 75.1049C240.026 76.6777 236.56 78.2414 233.112 79.8324C223.525 84.2509 213.911 88.5966 205.207 94.7243C201.246 97.5244 197.312 100.343 193.36 103.161C195.746 102.497 198.14 101.888 200.508 101.17C208.348 98.8063 216.171 96.3971 224.011 94.0424C224.93 93.8391 225.863 93.7054 226.802 93.6424L227.333 93.5333C228.683 92.8423 230.034 92.1877 231.393 91.4604C232.5 90.8604 233.571 90.1876 234.661 89.5421C235.025 88.5592 235.461 87.605 235.966 86.6874V86.651ZM301.482 53.2035C306.13 50.5602 309.919 46.6128 312.392 41.8392C315.686 35.6206 319.017 29.4111 322.294 23.1835C322.639 22.4716 322.899 21.7208 323.068 20.947C323.968 17.4831 322.897 14.2829 321.772 11.0554C321.16 9.30077 320.376 8.0916 318.297 8.4189C317.842 8.43259 317.388 8.38365 316.947 8.27344C317.667 10.619 318.387 12.9555 319.116 15.3011C319.726 17.0786 319.665 19.0211 318.945 20.756C317.46 24.3108 316.182 27.9474 314.552 31.4112C311.465 37.8844 308.035 44.1393 303.048 49.4215C300.986 51.5852 298.988 53.8126 296.963 56.0128C298.466 55.0854 299.942 54.1217 301.482 53.2399V53.2035ZM197.753 174.657C195.304 176.475 192.847 178.239 190.425 180.111C189.156 181.075 187.968 182.13 186.744 183.148C187.212 183.557 187.644 183.975 188.148 184.375L196.673 191.421C196.673 189.885 196.673 188.348 196.565 186.821C196.304 182.53 196.043 178.239 198.518 174.393C198.254 174.451 197.997 174.54 197.753 174.657ZM242.042 130.681L242.24 130.845L248.487 127.135C248.536 126.82 248.63 126.514 248.767 126.226C249.577 125.081 250.477 123.99 251.251 122.826C251.71 122.135 252.475 121.462 251.899 120.317C250.171 121.162 248.523 121.98 246.858 122.762C246.678 122.853 246.408 122.762 246.174 122.762L242.042 130.681Z" fill="#EB9A44"/>
<path fill-rule="evenodd" clip-rule="evenodd" d="M259.91 165.782C258.785 166.373 257.381 166.691 256.562 167.601C252.571 171.934 248.67 176.359 244.859 180.874C242.296 184.032 239.226 186.733 235.777 188.865C234.9 188.827 234.022 188.848 233.148 188.929C228.281 189.711 223.42 190.523 218.565 191.365C212.731 192.397 206.728 191.117 201.804 187.793C201.649 187.658 201.518 187.498 201.417 187.32L202.443 185.32C211.238 187.065 219.141 184.183 226.748 180.356C237.253 175.083 247.641 169.582 258.083 164.182C258.641 163.9 259.208 163.655 259.766 163.382C259.874 164.109 259.991 164.828 260.108 165.546L259.847 165.819L259.91 165.782ZM263.133 103.961C263.128 104.049 263.128 104.137 263.133 104.225C262.571 104.406 262.021 104.621 261.486 104.87C257.957 106.688 254.446 108.607 250.936 110.489C250.405 111.779 249.864 113.07 249.36 114.38C248.289 117.162 247.245 119.944 246.183 122.716C246.417 122.716 246.687 122.844 246.867 122.716C248.532 121.935 250.179 121.116 251.908 120.271C252.484 121.416 251.719 122.089 251.26 122.78C250.486 123.944 249.585 125.035 248.775 126.18C248.639 126.468 248.545 126.774 248.496 127.089L258.902 120.789C260.433 119.88 261.954 118.925 263.727 117.834C263.133 119.516 262.656 120.871 262.17 122.235C262.292 122.23 262.412 122.212 262.53 122.18C273.053 117.189 282.118 110.361 288.815 100.643C289.886 99.0879 290.85 97.4606 291.984 95.6786C291.554 95.6191 291.121 95.5978 290.687 95.615C288.07 95.9361 285.475 96.425 282.919 97.0787C277.995 98.6424 273.179 100.533 268.3 102.252C266.59 102.852 264.852 103.361 263.124 103.906L263.133 103.961ZM258.389 126.789L258.029 127.071C257.818 127.316 257.582 127.538 257.327 127.735C254.059 129.853 250.774 131.935 247.515 134.099C244.544 136.044 241.601 138.035 238.639 140.008C253.465 143.499 270.893 134.717 275.997 121.107C275.787 121.12 275.58 121.151 275.375 121.198C270.803 122.771 266.239 124.362 261.657 125.917C260.577 126.28 259.46 126.526 258.353 126.826L258.389 126.789Z" fill="#E47A40"/>
<path fill-rule="evenodd" clip-rule="evenodd" d="M313.112 3.63672C314.39 6.41265 315.672 9.18252 316.956 11.9463C317.676 14.2919 318.396 16.6284 319.125 18.974C319.736 20.7515 319.675 22.694 318.954 24.4289C317.46 27.9473 316.182 31.5839 314.552 35.0478C311.465 41.5209 308.035 47.7758 303.048 53.058C300.987 55.2217 298.988 57.4492 296.963 59.6493L293.92 62.4949C294.334 59.5493 294.712 56.9855 296.207 54.6308C300.024 48.8901 303.195 42.7363 305.659 36.2842C307.558 31.0111 308.188 25.5199 308.629 19.9923C309.025 14.8738 309.34 9.75528 309.691 4.63678C309.691 4.3004 309.817 3.9822 309.871 3.6549L313.112 3.63672ZM297.854 148.018C303.749 145.804 309.27 142.682 314.219 138.763C323.824 131.217 331.647 121.971 338.713 112.08C345.348 102.779 350.137 92.3604 355.898 82.5234C356.996 80.6506 356.366 79.5233 354.215 79.0141C350.263 78.105 346.896 79.3232 343.818 81.7416C341.612 83.4962 339.371 85.2145 337.147 86.9601L325.688 95.9697L325.355 96.1334L325.517 95.7334C326.084 94.7242 326.597 93.6787 327.227 92.715C328.334 91.0058 329.595 89.3875 330.657 87.651C334.402 81.5052 338.11 75.3412 341.783 69.159C348.084 58.5583 353.846 47.7667 356.348 35.4387C357.662 28.9201 359.112 22.4924 358.662 15.7102C358.527 13.8101 358.662 11.8918 358.662 10.0189C355.25 10.8008 352.711 12.5736 351.352 15.8375C351.091 16.4039 350.79 16.9508 350.452 17.4739C347.985 21.7651 345.753 26.2199 342.989 30.2929C336.013 40.5481 327.056 48.9395 317.667 56.8764L306.001 66.677C306.748 66.472 307.481 66.22 308.197 65.9224C311.798 64.1041 315.75 62.7677 318.999 60.4675C325.607 55.7945 331.863 50.6215 338.254 45.6484C340.325 44.0392 342.377 42.3937 344.601 40.639C344.349 41.8936 344.169 42.8664 343.962 43.8301C343.304 46.8394 342.944 49.9578 341.918 52.8307C338.074 63.5677 332.52 73.4592 326.372 82.9871C320.386 92.2695 313.067 100.47 305.317 108.289C304.498 109.25 303.755 110.275 303.093 111.353C303.641 111.433 304.199 111.396 304.731 111.243L311.852 109.652C320.542 104.616 329.243 99.5821 337.957 94.5515C338.029 94.506 338.164 94.5515 338.263 94.5515V94.3878H338.407L338.263 94.506C337.412 97.2844 336.09 99.8929 334.357 102.216C332.988 104.725 331.656 107.243 330.252 109.762C322.402 124.308 311.87 136.354 298.115 145.436C297.026 146.155 296.225 146.818 296.468 148.228C296.935 148.203 297.4 148.133 297.854 148.018ZM177.229 119.453C182.045 115.58 186.906 111.771 191.758 107.943C192.271 107.543 192.847 107.216 193.387 106.861C197.339 104.043 201.273 101.225 205.234 98.4244C213.93 92.2968 223.544 87.951 233.14 83.5326C236.587 81.9416 240.053 80.3779 243.51 78.805C244.941 78.1595 246.381 77.5595 247.786 76.8504C248.238 76.6692 248.603 76.3179 248.805 75.8703C249.006 75.4227 249.028 74.9137 248.866 74.4502C248.263 72.6319 247.525 70.9136 246.795 68.9953C241.322 71.3682 235.993 73.5411 230.754 75.9776C217.284 82.1083 204.396 89.4697 192.253 97.9699C177.589 108.443 166.301 121.853 157.479 137.509C159.908 136.268 162.112 134.62 163.996 132.636C166.139 130.281 168.389 128.017 170.586 125.717C172.26 123.081 174.843 121.362 177.229 119.453ZM239.342 113.644L238.973 113.916C237.812 115.262 236.704 116.644 235.48 117.935C230.772 122.871 226.208 127.935 221.239 132.608C218.259 135.39 214.632 137.463 211.337 139.882C210.653 140.354 210.046 140.931 209.537 141.591L216.873 140.136C219.331 138.609 221.815 137.118 224.246 135.59C228.981 132.554 233.689 129.463 238.514 126.326L239.828 127.563L224.534 145.064L238.613 143.636C241.574 141.663 244.518 139.672 247.489 137.727C250.747 135.599 254.033 133.518 257.301 131.363C257.556 131.166 257.791 130.944 258.003 130.699L258.363 130.417L262.171 125.872C262.657 124.508 263.134 123.144 263.728 121.471C261.928 122.562 260.433 123.499 258.903 124.426L248.497 130.726L242.249 134.436L242.051 134.272L246.183 126.299C247.245 123.526 248.29 120.744 249.361 117.962C249.865 116.653 250.405 115.362 250.936 114.071C251.971 110.616 253.061 107.189 254.033 103.716C254.798 100.988 254.384 100.079 252.133 98.579C250.657 98.6426 250.333 99.9245 249.721 100.879C249.44 101.233 249.12 101.553 248.767 101.834C248.551 102.134 248.353 102.443 248.128 102.743C246.21 105.298 243.735 107.434 242.411 110.443L239.342 113.644ZM191.56 223.523C193.018 223.396 194.26 223.305 195.557 223.178C205.923 222.178 215.831 218.375 224.237 212.168C233.869 205.131 241.925 196.449 249.397 187.184C253.673 181.884 256.463 175.638 259.875 169.793C259.938 169.693 259.875 169.538 259.875 169.42C258.75 170.011 257.346 170.329 256.526 171.238C252.536 175.572 248.635 179.996 244.824 184.512C242.271 187.667 239.213 190.368 235.777 192.503C234.31 193.976 232.878 195.476 231.384 196.921C224.823 203.218 217.353 208.472 209.231 212.504C204.405 214.92 199.088 216.166 193.702 216.141C193.027 218.596 192.307 220.978 191.56 223.523ZM272.694 51.0397C269.156 55.8127 265.78 60.7221 262.117 65.3951C258.399 70.3453 254.399 75.0719 250.135 79.5505C245.292 84.4326 239.855 88.7147 234.679 93.2514C233.59 93.8969 232.518 94.5697 231.411 95.1697C230.07 95.897 228.711 96.5516 227.351 97.2425L226.82 97.3516C225.569 98.0244 224.282 98.6517 223.066 99.3791C222.259 99.7996 221.531 100.36 220.915 101.034C220.42 101.652 219.817 102.852 220.069 103.279C220.602 104.147 221.427 104.792 222.391 105.098C227.171 106.479 231.474 104.979 235.624 102.661C240.395 99.9882 244.275 96.297 247.867 92.1968C252.881 86.5419 257.832 80.8233 262.81 75.1321C263.053 74.8502 263.242 74.5229 263.458 74.2229L263.62 74.0138C263.675 73.7766 263.744 73.5428 263.827 73.3138C266.005 68.6953 268.19 64.0738 270.38 59.4493C272.082 55.8127 273.792 52.2761 275.538 48.6032L274.305 48.3213C274.269 48.9395 273.018 50.6033 272.694 51.0397ZM172.377 178.466C164.05 180.884 155.741 183.321 148.36 188.166C146.091 189.657 146.028 189.566 147.082 192.148C157.069 192.601 167.031 190.807 176.248 186.894C185.754 182.707 194.379 176.723 201.66 169.265C202.074 168.856 202.506 168.474 202.929 168.074C203.928 166.01 204.919 163.947 205.918 161.874L196.979 167.156C196.583 167.72 196.304 168.52 195.764 168.811C191.74 170.965 187.662 173.02 183.62 175.102C179.875 176.22 176.131 177.375 172.377 178.466ZM281.921 168.656C289.556 167.764 296.975 165.511 303.831 162.001C311.366 158.31 317.982 153.255 324.445 147.982C324.797 147.691 325.193 147.455 325.562 147.191L330.765 139.518L330.351 139.118L323.293 143.409C319.215 145.927 315.273 148.737 311.024 150.919C302.463 155.31 293.128 157.364 283.802 159.337C278.635 160.437 273.837 162.301 269.93 166.047C269.147 166.792 268.436 167.629 267.563 168.565L271.406 169.183C274.944 169.038 278.428 169.011 281.921 168.656ZM196.565 190.421C196.655 191.948 196.637 193.485 196.673 195.021L198.068 196.012L201.417 190.948L202.443 188.948C202.514 188.759 202.601 188.576 202.704 188.403C204.883 185.512 207.043 182.602 209.276 179.748C212.57 175.52 215.712 171.138 219.88 167.674L225.605 162.883C225.284 162.947 224.968 163.035 224.66 163.147C219.988 165.265 215.298 167.347 210.653 169.511C207.673 170.929 204.541 172.102 202.074 174.456C201.381 175.111 200.661 175.72 199.95 176.347L198.518 177.957C196.043 181.839 196.304 186.139 196.565 190.421ZM262.936 164.247L262.36 163.71L259.794 167.047C259.902 167.774 260.019 168.492 260.136 169.211C261.207 167.611 262.522 166.138 262.936 164.247ZM0.00012207 346.985C0.747277 343.894 1.67447 340.821 2.19658 337.685C2.71869 334.548 2.7727 331.375 3.09676 328.23C3.63688 323.129 5.28422 318.32 6.99458 313.538C8.79495 308.483 10.5953 303.428 12.2607 298.328C13.9231 293.487 17.0027 289.27 21.0915 286.236C24.4852 283.563 28.0229 281.063 31.3536 278.327C41.1477 270.281 50.8697 262.153 60.6097 254.043C64.264 251.128 67.1439 247.342 68.9904 243.024C70.6378 239.042 70.0797 236.142 66.965 233.151C64.1114 230.424 61.0598 227.887 58.2872 225.087C57.0205 223.836 56.0324 222.326 55.3886 220.659C52.0399 211.341 48.8623 201.967 45.6306 192.612C43.1101 185.339 43.0831 177.866 44.1273 170.338C44.3433 168.765 44.3703 167.165 44.5684 165.592C44.5895 164.945 44.7856 164.316 45.1355 163.774C47.476 161.046 49.7715 158.319 52.337 155.837C57.6571 150.691 64.1114 147.264 70.6828 144.082C73.5454 142.691 76.498 141.482 79.3156 140C84.8787 137.09 90.703 136.827 96.7072 137.909C100.362 138.563 104.053 139.109 107.671 139.936C108.71 140.301 109.589 141.022 110.156 141.973C112.316 145.373 114.297 148.9 116.376 152.355C117.835 154.782 119.221 157.264 120.877 159.555C121.896 161.07 123.188 162.377 124.685 163.41C127.89 165.447 131.31 167.129 134.587 168.992C136.243 169.841 137.838 170.807 139.358 171.884C142.131 174.02 142.734 176.966 141.158 180.12C140.555 181.348 139.763 182.475 139.016 183.757L144.993 193.867C144.273 195.03 143.547 196.194 142.815 197.358C142.284 198.267 141.744 199.131 141.149 200.085C142.05 200.622 142.95 201.113 143.85 201.649C147.451 203.822 148.432 206.113 147.829 210.277C147.442 212.152 147.24 214.062 147.226 215.977C147.336 218.261 147.744 220.52 148.441 222.696C149.971 227.314 149.161 230.387 145.074 233.033C142.926 234.434 140.682 235.68 138.359 236.76C128.997 241.061 123.389 248.434 120.859 258.334C120.193 260.907 119.86 263.571 119.383 266.198C119.167 267.389 120.004 268.071 120.751 268.69C122.798 270.393 124.877 272.05 126.99 273.663C134.497 279.363 141.987 285.091 149.557 290.7C155.741 295.246 159.801 301.419 162.556 308.501C166.344 318.621 169.59 328.939 172.278 339.412C173.223 342.912 174.159 346.403 175.131 350.049C174.654 350.049 174.231 350.104 173.88 350.104H43.8932C30.8495 350.104 17.7878 350.058 4.74411 350.049C4.00355 350.085 2.70068 350.049 2.70068 350.049H1.3504C0.890948 349.936 0.305567 350.15 0.00012207 349.785L0.00012207 346.985Z" fill="white"/>
</svg>
