<svg width="524" height="523" viewBox="0 0 524 523" fill="none" xmlns="http://www.w3.org/2000/svg">
<circle cx="261.5" cy="261.5" r="242" stroke="#C00A35" stroke-width="39"/>
<circle cx="260.56" cy="261.5" r="222.5" fill="white" stroke="#C00A35" stroke-width="2"/>
<path d="M479.81 219.59C482.465 233.473 483.804 247.575 483.81 261.71C483.77 385 383.81 485 260.51 485C137.21 485 37.23 385 37.23 261.71C37.23 138.42 137.23 38.43 260.51 38.43C294.473 38.3751 327.998 46.1029 358.51 61.02" stroke="#393738" stroke-width="4" stroke-miterlimit="10"/>
<path fill-rule="evenodd" clip-rule="evenodd" d="M460.53 97C461.81 96 463.05 95 464.3 94C463.42 95.89 462.63 97.83 461.63 99.65C455.4 110.95 449.18 122.25 442.84 133.48C440.3 137.96 437.59 142.36 434.7 146.63C427.92 156.63 420.14 165.92 412.35 175.16C409.35 178.67 406.5 182.25 403.63 185.83C401.2 188.83 401.33 189.23 404.95 190.44C409.03 191.8 413.12 193.13 417.7 194.63L402.42 198.5C395.69 200.22 388.97 201.96 382.25 203.66C374.65 205.58 367.02 207.38 359.44 209.39C348.44 212.31 337.38 215.33 326.37 218.39C319.52 220.28 312.67 222.2 305.87 224.27C304.094 224.955 302.398 225.83 300.81 226.88C299.75 227.48 298.75 228.21 297.73 228.88L285.61 236C285.87 227.54 288.4 220 294.86 214.21C298.52 210.93 302.55 208.06 306.42 205C308.26 203.54 310.12 202.1 311.95 200.61C312.203 200.332 312.409 200.014 312.56 199.67C315.9 197.67 319.26 195.67 322.56 193.52C328.98 189.44 335.36 185.3 341.91 181.08L343.69 182.74L323.06 206.37L342.16 204.45C362.26 209.14 385.9 197.34 392.81 179.08C392.531 179.092 392.253 179.128 391.98 179.19C385.77 181.3 379.58 183.44 373.37 185.52C371.91 186.02 370.37 186.35 368.89 186.76L374.05 180.7C374.216 180.703 374.381 180.679 374.54 180.63C388.81 173.93 401.1 164.8 410.18 151.72C411.63 149.63 412.95 147.45 414.49 145.05C413.904 144.97 413.311 144.94 412.72 144.96C409.2 145.58 405.58 145.87 402.19 146.96C395.51 149.06 388.97 151.59 382.36 153.9C380.05 154.71 377.7 155.39 375.36 156.13V156.48L374.94 156.21L375.36 156.12C376.36 154.83 377.36 153.49 378.42 152.26C382.42 147.69 387.71 144.9 392.72 141.74C409.72 131.03 426.78 120.55 443.64 109.74C449.5 105.88 454.91 101.29 460.53 97ZM278.53 156.48C271.95 161.62 265.36 166.74 258.82 171.94C255.59 174.51 252.08 176.81 249.82 180.41C249.695 181.063 249.528 181.708 249.32 182.34C245.447 192.26 241.567 202.17 237.68 212.07C236.78 214.35 235.887 216.623 235 218.89C237.12 219.76 237.88 218.41 238.74 217.11C245.85 206.36 253.93 196.44 263.82 188.11C270.089 182.664 277.074 178.102 284.58 174.55C291.71 171.3 298.97 168.28 306.33 165.55C319.64 160.68 333.06 156.11 346.44 151.45C349.55 150.36 352.7 149.4 355.83 148.39C356.307 148.006 356.743 147.574 357.13 147.1C357.99 145.82 358.4 144.1 360.4 144.01C360.94 143.39 361.46 142.73 362.04 142.13C367.36 136.68 373.24 131.77 377.36 125.22C383.47 115.5 389.68 105.84 395.86 96.22C396.004 96.069 396.111 95.8863 396.173 95.6866C396.234 95.4868 396.248 95.2755 396.213 95.0695C396.178 94.8636 396.095 94.6686 395.971 94.5003C395.848 94.3319 395.686 94.1949 395.5 94.1C394.5 93.37 394.11 93.99 393.59 94.61C392.172 96.4277 390.66 98.1701 389.06 99.83C386.2 102.59 383.2 105.2 380.19 107.83C378.86 108.97 377.37 109.92 375.95 110.96L375.72 111.23C375.45 111.653 375.156 112.06 374.84 112.45C368.09 120.1 361.38 127.78 354.58 135.38C349.7 140.82 344.45 145.84 337.98 149.38C332.35 152.5 326.51 154.51 320.04 152.65C318.734 152.259 317.614 151.406 316.89 150.25C316.54 149.61 317.36 148.06 318.03 147.25C318.864 146.349 319.849 145.601 320.94 145.04C322.6 144.04 324.34 143.21 326.04 142.31C324.765 142.392 323.498 142.573 322.25 142.85C311.62 146.01 301.01 149.25 290.38 152.42C287.17 153.42 283.92 154.2 280.69 155.09C280 155.55 279.22 156 278.53 156.52V156.48Z" fill="#F0B67F"/>
<path fill-rule="evenodd" clip-rule="evenodd" d="M386.53 238.79C391.29 238.56 396.06 238.52 400.79 238.04C411.147 236.847 421.211 233.824 430.51 229.11C440.73 224.11 449.69 217.37 458.51 210.28C458.99 209.9 459.51 209.58 460.01 209.22C454.27 217.91 447.43 225.49 438.61 231.22C426.87 238.87 413.98 243.48 400.33 246.12C395.93 246.97 391.5 247.74 387.05 248.12C384.76 248.148 382.477 247.872 380.26 247.3C379.26 247.12 379.14 245.41 380.05 244.58C382.17 242.65 384.36 240.73 386.53 238.79ZM215.21 271.79L212.21 276.48C216.98 276.48 221.75 276.48 226.52 276.42C232.2 276.33 237.87 275.92 243.23 273.88C249.66 271.43 256.01 268.75 262.39 266.16C265.5 264.9 268.59 263.61 271.68 262.33C273.34 260.97 274.95 259.54 276.68 258.25C279.96 255.78 283.29 253.38 286.62 250.97C286.935 250.795 287.271 250.661 287.62 250.57L289.55 248.42C289.691 247.955 289.872 247.504 290.09 247.07C292 244.07 293.56 240.93 293.6 237.26C293.02 237.79 292.43 238.26 291.87 238.85C282.004 248.872 270.305 256.908 257.41 262.52C244.911 267.77 231.403 270.181 217.86 269.58L215.21 271.79Z" fill="#F7C747"/>
<path fill-rule="evenodd" clip-rule="evenodd" d="M370.96 239.07C369.42 239.87 367.52 240.33 366.41 241.52C360.997 247.347 355.717 253.29 350.57 259.35C347.077 263.581 342.903 267.201 338.22 270.06C337.03 270.001 335.837 270.028 334.65 270.14C328.063 271.193 321.473 272.283 314.88 273.41C306.968 274.796 298.826 273.076 292.15 268.61C291.946 268.428 291.77 268.215 291.63 267.98L293.02 265.29C304.94 267.64 315.66 263.76 326.02 258.62C340.27 251.55 354.36 244.16 368.52 236.92C369.27 236.53 370.04 236.2 370.8 235.84C370.95 236.84 371.11 237.78 371.26 238.74L370.9 239.12L370.96 239.07ZM368.88 186.75L368.39 187.13C368.103 187.457 367.785 187.755 367.44 188.02C363.01 190.87 358.56 193.66 354.14 196.52C350.14 199.13 346.14 201.8 342.14 204.45C362.24 209.14 385.88 197.35 392.79 179.08C392.511 179.092 392.233 179.128 391.96 179.19C385.75 181.3 379.56 183.44 373.35 185.52C371.89 186.02 370.35 186.35 368.87 186.76L368.88 186.75ZM375.31 156.09V156.45C374.546 156.692 373.798 156.983 373.07 157.32C368.29 159.81 363.53 162.32 358.76 164.86C358.05 166.6 357.31 168.33 356.63 170.09C355.18 173.82 353.76 177.55 352.32 181.29C352.63 181.29 353 181.45 353.25 181.29C355.51 180.24 357.74 179.14 360.09 178C360.87 179.55 359.83 180.45 359.21 181.37C358.15 182.94 356.94 184.37 355.84 185.94C355.647 186.333 355.518 186.756 355.46 187.19L369.57 178.73L376.12 174.73C375.31 176.99 374.65 178.81 374 180.63C374.166 180.633 374.332 180.609 374.49 180.56C388.76 173.86 401.05 164.73 410.13 151.65C411.58 149.56 412.9 147.38 414.44 144.98C413.854 144.9 413.262 144.87 412.67 144.89C409.15 145.51 405.53 145.8 402.14 146.89C395.46 148.99 388.92 151.52 382.31 153.83C380 154.64 377.64 155.32 375.31 156.06V156.09Z" fill="#E47A40"/>
<path fill-rule="evenodd" clip-rule="evenodd" d="M420.48 210.69C417.68 211.69 414.89 212.69 412.08 213.56C404.72 215.95 397.46 218.72 389.72 219.63C385.16 220.17 380.56 220.41 375.97 220.82C359.414 222.158 342.994 224.833 326.87 228.82C325.985 229.195 325.16 229.697 324.42 230.31C323.989 230.399 323.564 230.52 323.15 230.67C316.81 233.52 310.44 236.31 304.15 239.26C300.15 241.16 295.86 242.74 292.51 245.9C291.58 246.78 290.59 247.6 289.63 248.45C289.771 247.985 289.952 247.534 290.17 247.1C292.08 244.1 293.64 240.96 293.68 237.29L297.73 228.96C298.73 228.29 299.73 227.56 300.81 226.96C302.398 225.91 304.094 225.035 305.87 224.35C312.67 222.28 319.52 220.35 326.37 218.47C337.37 215.47 348.37 212.41 359.44 209.47C367.02 207.47 374.65 205.66 382.25 203.74C388.97 202.04 395.69 200.3 402.42 198.58L417.7 194.71C413.12 193.21 409.03 191.88 404.95 190.52C401.33 189.31 401.2 188.93 403.63 185.91C406.5 182.33 409.39 178.75 412.35 175.24C420.14 166 427.92 156.73 434.7 146.71C437.59 142.45 440.3 138.04 442.84 133.56C449.18 122.33 455.4 111.03 461.63 99.73C462.309 98.3091 462.791 96.8017 463.06 95.25L464.3 94.05C463.03 95.05 461.78 96.05 460.49 97.05C454.87 101.3 449.49 105.89 443.55 109.69C426.69 120.53 409.55 131.01 392.63 141.69C387.63 144.85 382.31 147.64 378.33 152.21C377.25 153.45 376.28 154.79 375.26 156.08L374.84 156.17L375.26 156.44C374.496 156.682 373.748 156.973 373.02 157.31C368.24 159.8 363.48 162.31 358.71 164.85C360.12 160.22 361.59 155.61 362.91 150.95C363.91 147.32 363.39 146.03 360.34 144.05C360.88 143.43 361.4 142.77 361.98 142.17C367.3 136.72 373.18 131.81 377.3 125.26C383.41 115.54 389.62 105.88 395.8 96.26C395.945 96.109 396.052 95.9263 396.113 95.7266C396.174 95.5268 396.188 95.3155 396.153 95.1095C396.118 94.9036 396.035 94.7086 395.911 94.5403C395.788 94.3719 395.626 94.2349 395.44 94.14C394.44 93.41 394.05 94.03 393.53 94.65C392.13 96.4526 390.638 98.1816 389.06 99.83C386.2 102.59 383.2 105.2 380.19 107.83C378.86 108.97 377.37 109.92 375.95 110.96C376.018 110.64 376.111 110.325 376.23 110.02C379.183 103.807 382.143 97.6 385.11 91.4C387.42 86.58 389.74 81.76 392.11 76.83L390.44 76.46C392.69 71.34 394.87 66.18 397.31 61.14C397.59 60.55 399.26 60.62 400.46 60.35C401.06 67.89 401.55 75 402.06 82.09C402.83 92.79 400.01 102.88 396.78 112.89C395.93 115.51 395.14 118.13 394.33 120.76C393.72 122.76 393.73 122.76 395.47 124.44C396.23 123.99 397.04 123.52 397.84 123.03C409.173 116.13 420.53 109.22 431.91 102.3C432.447 101.939 432.962 101.545 433.45 101.12C434.471 100.853 435.473 100.519 436.45 100.12C441.39 97.75 446.7 95.88 451.14 92.78C460.14 86.51 468.59 79.57 477.26 72.89C480.07 70.73 482.85 68.52 485.86 66.16C485.52 67.85 485.28 69.16 484.99 70.45C484.1 74.45 483.61 78.67 482.22 82.53C477.01 96.95 469.49 110.23 461.15 123.02C453.02 135.49 443.1 146.5 432.59 157.02C431.485 158.31 430.482 159.684 429.59 161.13C430.335 161.234 431.094 161.186 431.82 160.99L441.47 158.84C441.12 160.55 440.76 162.26 440.28 164.55C442.185 163.95 444.055 163.242 445.88 162.43C453.88 158.23 461.88 153.93 469.88 149.69C470.53 149.397 471.198 149.146 471.88 148.94C470.02 152.32 468.15 155.7 466.31 159.08C455.66 178.58 441.38 194.78 422.73 206.98C421.23 207.9 420.14 208.8 420.48 210.69ZM302.22 297C313.222 291.553 323.337 284.473 332.22 276C334.22 274.06 336.22 272.05 338.22 270.07C337.03 270.012 335.837 270.038 334.65 270.15C328.063 271.203 321.473 272.293 314.88 273.42C306.968 274.806 298.826 273.086 292.15 268.62C291.946 268.438 291.77 268.225 291.63 267.99L287.08 274.79L290.3 275.97C289.611 276.614 288.883 277.215 288.12 277.77C286.17 278.97 284.12 280.08 282.2 281.27C277.42 284.16 274.7 288.72 272.57 293.64C271.33 296.49 272.26 298.69 275.12 300.01C277.077 300.774 279.081 301.412 281.12 301.92C288.441 301.953 295.668 300.268 302.22 297ZM338.48 132.89C340.58 129.6 342.84 126.42 345.01 123.17C346.27 121.27 347.47 119.34 348.7 117.43C344.01 119.54 339.31 121.64 334.63 123.77C321.63 129.71 308.63 135.55 296.81 143.77C291.44 147.52 286.09 151.31 280.74 155.09C283.97 154.2 287.22 153.38 290.43 152.42C301.06 149.25 311.67 146.01 322.3 142.85C323.548 142.573 324.815 142.392 326.09 142.31L326.8 142.17C328.64 141.24 330.5 140.36 332.31 139.39C333.81 138.58 335.26 137.67 336.74 136.81C337.217 135.45 337.799 134.13 338.48 132.86V132.89ZM427.32 88C433.622 84.4479 438.762 79.1481 442.12 72.74C446.59 64.38 451.12 56.05 455.56 47.69C456.026 46.7345 456.379 45.7276 456.61 44.69C457.78 40.04 456.37 35.69 454.85 31.42C454.02 29.05 452.96 27.42 450.13 27.88C449.514 27.891 448.899 27.8238 448.3 27.68L451.24 37.11C452.089 39.5115 452.011 42.1434 451.02 44.49C449.02 49.21 447.26 54.07 445.02 58.69C440.83 67.39 436.19 75.83 429.42 82.88C426.63 85.79 423.92 88.77 421.18 91.72C423.23 90.43 425.24 89.14 427.32 88ZM286.66 251C283.33 253.41 280 255.81 276.72 258.28C275 259.57 273.39 261 271.72 262.36C272.35 262.91 272.97 263.47 273.62 264L285.18 273.46C285.18 271.41 285.18 269.34 285.04 267.29C284.68 261.52 284.33 255.77 287.69 250.6C287.331 250.689 286.985 250.823 286.66 251ZM341.36 165C333.68 169.43 325.96 173.8 318.36 178.33C298.65 190.06 283 205.69 272.52 226.26C269.25 232.7 266.99 239.39 267.52 246.76C273.02 243.96 278.52 241.21 283.99 238.31C284.72 237.92 285.09 236.85 285.64 236.09C285.9 227.63 288.43 220.09 294.89 214.3C298.55 211.02 302.58 208.15 306.45 205.09C308.29 203.63 310.15 202.19 311.98 200.7C312.233 200.422 312.439 200.104 312.59 199.76L302.64 201.76C303.334 200.868 304.168 200.094 305.11 199.47C309.63 196.24 314.55 193.47 318.58 189.72C325.32 183.48 331.52 176.64 337.9 170.01C339.56 168.29 341.06 166.43 342.63 164.63C342.196 164.685 341.77 164.789 341.36 164.94V165ZM354.96 149.7C355.26 149.31 355.54 148.9 355.82 148.5C352.69 149.5 349.54 150.5 346.43 151.56C333.05 156.22 319.63 160.79 306.32 165.66C298.96 168.35 291.7 171.37 284.57 174.66C277.064 178.212 270.079 182.774 263.81 188.22C253.92 196.58 245.81 206.5 238.73 217.22C237.87 218.52 237.11 219.87 234.99 219C235.877 216.727 236.77 214.453 237.67 212.18C241.55 202.267 245.43 192.357 249.31 182.45C249.518 181.818 249.685 181.173 249.81 180.52C246.81 183.61 243.81 186.65 240.87 189.81C238.313 192.473 235.325 194.684 232.03 196.35C231.77 196.9 231.47 197.43 231.26 198C229.053 203.933 226.85 209.87 224.65 215.81C222.44 221.75 220.21 227.68 218.04 233.63C217.948 233.896 217.915 234.179 217.945 234.459C217.974 234.739 218.065 235.009 218.21 235.25C218.423 235.474 218.684 235.645 218.974 235.751C219.263 235.857 219.574 235.894 219.88 235.86C226.53 233.5 233.27 231.32 239.76 228.54C247.69 225.15 253.37 219.4 255.97 210.92C256.494 209.428 257.164 207.991 257.97 206.63C262.49 198.41 269.5 192.96 277.88 189.2C299.06 179.68 320.273 170.243 341.52 160.89C343.23 160.14 345.33 160.31 347.25 160.05C349 155.94 352.35 153.07 354.96 149.64V149.7ZM346.72 192L346.98 192.22L355.46 187.22C355.518 186.786 355.647 186.363 355.84 185.97C356.94 184.43 358.15 182.97 359.21 181.4C359.83 180.48 360.87 179.58 360.09 178.03C357.74 179.17 355.51 180.27 353.25 181.32C353 181.44 352.63 181.32 352.32 181.32C350.453 184.86 348.587 188.42 346.72 192Z" fill="#EB9A44"/>
<path fill-rule="evenodd" clip-rule="evenodd" d="M80.3999 270.21C76.9999 260.42 76.9499 250.42 78.3999 240.31C78.6899 238.19 78.7399 236.05 79.0099 233.94C79.017 233.054 79.281 232.189 79.7699 231.45C82.9399 227.82 86.0599 224.11 89.5399 220.77C96.7599 213.88 105.54 209.28 114.41 205C118.3 203.13 122.3 201.5 126.13 199.53C133.68 195.61 141.56 195.26 149.72 196.71C154.67 197.6 159.67 198.33 164.58 199.44C165.984 199.926 167.172 200.888 167.94 202.16C170.88 206.73 173.56 211.47 176.38 216.16C178.38 219.42 180.23 222.74 182.47 225.82C183.852 227.85 185.602 229.604 187.63 230.99C191.99 233.73 196.63 235.99 201.12 238.49C203.357 239.634 205.515 240.927 207.58 242.36C211.34 245.24 212.16 249.18 210.04 253.44C209.22 255.08 208.15 256.6 207.14 258.26C209.79 262.72 212.51 267.26 215.23 271.84C214.23 273.41 213.23 274.96 212.3 276.53C211.56 277.72 210.82 278.91 210.03 280.22C211.26 280.94 212.48 281.6 213.65 282.31C218.48 285.24 219.87 288.31 219.05 293.9C218.526 296.417 218.251 298.979 218.23 301.55C218.379 304.609 218.931 307.635 219.87 310.55C221.95 316.77 220.87 320.87 215.3 324.44C212.389 326.32 209.348 327.991 206.2 329.44C193.51 335.22 185.91 345.12 182.47 358.44C181.57 361.89 181.12 365.44 180.47 368.99C180.17 370.6 181.31 371.52 182.31 372.36C185.09 374.63 187.91 376.86 190.78 379.02C200.95 386.67 211.11 394.36 221.37 401.89C229.76 408.05 235.27 416.29 239 425.8C244.32 439.34 248.36 453.31 252.19 467.33C253.47 472.02 257.11 484.99 257.11 484.99C226.37 489.66 125.11 470.77 69.1099 378.74C79.6699 370.073 90.2132 361.407 100.74 352.74C105.683 348.81 109.573 343.714 112.06 337.91C114.29 332.56 113.53 328.66 109.3 324.64C105.44 320.99 101.3 317.59 97.5399 313.81C95.8266 312.13 94.4904 310.106 93.6199 307.87C89.0599 295.36 84.7899 282.77 80.3999 270.21ZM443.06 16.47L448.27 27.63L451.21 37.06C452.059 39.4614 451.98 42.0933 450.99 44.44C448.99 49.16 447.23 54.02 444.99 58.64C440.8 67.34 436.16 75.78 429.39 82.83C426.6 85.74 423.89 88.72 421.15 91.67L417.06 95.48C417.63 91.48 418.14 88.08 420.17 84.92C425.17 77.11 429.79 69.05 432.98 60.28C435.56 53.2 436.42 45.82 436.98 38.4C437.53 31.53 437.98 24.65 438.43 17.78C438.485 17.3391 438.565 16.9017 438.67 16.47H443.06ZM422.41 210.34C430.405 207.364 437.89 203.168 444.6 197.9C457.6 187.78 468.23 175.37 477.81 162.07C486.81 149.59 493.3 135.6 501.12 122.4C502.61 119.87 501.76 118.4 498.83 117.67C493.48 116.41 488.91 118.09 484.74 121.38C481.74 123.74 478.74 126.04 475.69 128.38C470.503 132.38 465.323 136.417 460.15 140.49L459.67 140.72L459.89 140.18C460.66 138.83 461.36 137.42 462.21 136.12C463.71 133.83 465.42 131.66 466.86 129.32C471.94 121.073 476.973 112.797 481.96 104.49C490.48 90.26 498.31 75.78 501.7 59.22C503.51 50.41 505.48 41.74 504.84 32.68C504.66 30.13 504.84 27.56 504.84 25.03C500.2 26.09 496.77 28.47 494.92 32.86C494.56 33.6152 494.153 34.3467 493.7 35.05C490.35 40.8 487.33 46.79 483.58 52.26C474.06 66 461.95 77.29 449.22 88L433.45 101.12C434.471 100.853 435.473 100.518 436.45 100.12C441.39 97.75 446.7 95.88 451.14 92.78C460.14 86.51 468.59 79.57 477.26 72.89C480.07 70.73 482.85 68.52 485.86 66.16C485.52 67.85 485.28 69.16 484.99 70.45C484.1 74.45 483.61 78.67 482.22 82.53C477.01 96.95 469.49 110.23 461.15 123.02C453.02 135.49 443.1 146.5 432.59 157.02C431.485 158.31 430.482 159.684 429.59 161.13C430.335 161.234 431.094 161.186 431.82 160.99L441.47 158.84L476.83 138.57C476.92 138.51 477.1 138.57 477.24 138.62C477.38 138.67 477.24 138.48 477.24 138.41H477.44L477.24 138.57C476.094 142.304 474.3 145.808 471.94 148.92C470.09 152.3 468.22 155.68 466.38 159.06C455.73 178.56 441.45 194.76 422.8 206.96C421.32 207.96 420.23 208.82 420.57 210.71C421.192 210.638 421.808 210.514 422.41 210.34ZM258.82 172C265.36 166.8 271.95 161.68 278.53 156.54C279.22 156 280 155.54 280.74 155.09C286.09 151.31 291.44 147.52 296.81 143.77C308.59 135.54 321.64 129.7 334.63 123.77C339.31 121.64 344.01 119.54 348.7 117.43C350.63 116.56 352.59 115.75 354.49 114.81C355.106 114.568 355.605 114.095 355.879 113.493C356.153 112.89 356.182 112.204 355.96 111.58C355.14 109.18 354.13 106.84 353.15 104.32C345.73 107.5 338.48 110.42 331.4 113.69C313.2 122.11 295.61 131.61 279.18 143.22C259.3 157.28 244 175.29 232.03 196.31C235.324 194.644 238.313 192.433 240.87 189.77C243.78 186.61 246.82 183.57 249.8 180.48C252.06 176.85 255.59 174.55 258.82 172ZM343.06 164.17L342.55 164.54C340.98 166.34 339.48 168.2 337.82 169.92C331.44 176.55 325.24 183.39 318.5 189.63C314.5 193.37 309.55 196.15 305.03 199.38C304.088 200.004 303.254 200.778 302.56 201.67L312.51 199.67C315.85 197.67 319.21 195.67 322.51 193.52C328.93 189.44 335.31 185.3 341.86 181.08L343.64 182.74L323.06 206.37L342.16 204.45C346.16 201.8 350.16 199.13 354.16 196.52C358.58 193.66 363.03 190.87 367.46 188.02C367.805 187.755 368.123 187.457 368.41 187.13L368.9 186.75L374.06 180.69C374.71 178.87 375.37 177.05 376.18 174.79L369.63 178.79L355.52 187.25L347.04 192.25L346.78 192.03C348.64 188.457 350.507 184.89 352.38 181.33C353.82 177.59 355.24 173.86 356.69 170.13C357.37 168.37 358.11 166.64 358.82 164.9C360.23 160.27 361.7 155.66 363.02 151C364.02 147.37 363.5 146.08 360.45 144.1C358.45 144.18 358.04 145.91 357.18 147.19C356.793 147.664 356.357 148.096 355.88 148.48C355.6 148.88 355.32 149.29 355.02 149.68C352.41 153.11 349.02 155.98 347.26 160.02L343.06 164.17ZM278.26 311.72C280.26 311.55 281.96 311.42 283.68 311.25C297.737 309.914 311.173 304.807 322.57 296.47C335.63 287.03 346.57 275.36 356.69 262.93C362.49 255.81 366.27 247.42 370.91 239.57C370.936 239.404 370.936 239.236 370.91 239.07C369.37 239.87 367.47 240.33 366.36 241.52C360.947 247.347 355.667 253.29 350.52 259.35C347.027 263.581 342.853 267.201 338.17 270.06C336.17 272.06 334.24 274.06 332.17 275.99C323.286 284.463 313.172 291.543 302.17 296.99C295.632 300.259 288.419 301.951 281.11 301.93C280.22 305.11 279.27 308.3 278.26 311.72ZM388.26 80.11C383.46 86.53 378.89 93.11 373.92 99.39C368.73 105.92 363.56 112.54 357.68 118.39C351.1 124.94 343.73 130.68 336.68 136.78C335.2 137.64 333.75 138.55 332.25 139.36C330.44 140.36 328.58 141.21 326.74 142.14L326.03 142.28C324.33 143.18 322.59 144.03 320.93 145.01C319.838 145.571 318.854 146.319 318.02 147.22C317.35 148.05 316.53 149.6 316.88 150.22C317.604 151.376 318.723 152.229 320.03 152.62C326.5 154.48 332.34 152.47 337.97 149.35C344.44 145.77 349.69 140.75 354.57 135.35C361.37 127.75 368.08 120.07 374.83 112.42C375.146 112.03 375.439 111.623 375.71 111.2L375.94 110.93C376.007 110.61 376.101 110.295 376.22 109.99C379.173 103.777 382.133 97.57 385.1 91.37C387.41 86.55 389.73 81.73 392.1 76.8L390.43 76.43C390.42 77.3 388.72 79.53 388.28 80.11H388.26ZM252.26 251.21C240.97 254.47 229.7 257.74 219.7 264.21C216.62 266.21 216.53 266.09 217.96 269.56C231.503 270.161 245.011 267.75 257.51 262.5C270.405 256.888 282.104 248.852 291.97 238.83C292.53 238.28 293.12 237.77 293.7 237.24L297.75 228.91L285.61 236C285.06 236.76 284.69 237.83 283.96 238.22C278.51 241.12 272.96 243.87 267.49 246.67C262.41 248.21 257.34 249.75 252.24 251.21H252.26ZM400.79 238C411.147 236.807 421.21 233.784 430.51 229.07C440.73 224.07 449.69 217.33 458.51 210.24C458.99 209.86 459.51 209.54 460.01 209.18L467.08 198.88L466.51 198.34C463.32 200.27 460.12 202.2 456.94 204.14C451.41 207.52 446.07 211.29 440.3 214.22C428.7 220.12 416.04 222.88 403.39 225.53C396.39 227 389.87 229.53 384.58 234.53C383.51 235.53 382.58 236.67 381.36 237.93L386.57 238.75C391.29 238.56 396.06 238.52 400.79 238ZM285.06 267.27C285.18 269.32 285.16 271.39 285.2 273.44L287.09 274.78L291.64 267.98L293.03 265.29C293.12 265.035 293.237 264.79 293.38 264.56C296.38 260.68 299.27 256.78 302.29 252.94C306.76 247.26 311.02 241.38 316.67 236.73L324.43 230.29C323.998 230.379 323.574 230.5 323.16 230.65C316.82 233.5 310.45 236.29 304.16 239.24C300.16 241.14 295.87 242.72 292.52 245.88C291.59 246.76 290.6 247.58 289.64 248.43L287.71 250.58C284.34 255.75 284.69 261.5 285.06 267.27ZM375.06 232.12L374.28 231.4L370.8 235.84C370.95 236.84 371.11 237.78 371.26 238.74C372.71 236.64 374.49 234.72 375.06 232.12Z" fill="#393738"/>
</svg>
